<svg xmlns="http://www.w3.org/2000/svg" xmlns:xlink="http://www.w3.org/1999/xlink" width="50" zoomAndPan="magnify" viewBox="0 0 37.5 37.499999" height="50" preserveAspectRatio="xMidYMid meet" version="1.0"><defs><clipPath id="60b872a376"><path d="M 32.097656 14.699219 L 37.003906 14.699219 L 37.003906 22.289062 L 32.097656 22.289062 Z M 32.097656 14.699219 " clip-rule="nonzero"/></clipPath><clipPath id="5c5fb2738f"><path d="M 32.097656 21.660156 L 32.097656 15.335938 C 32.097656 14.988281 32.378906 14.703125 32.726562 14.703125 L 36.375 14.703125 C 36.722656 14.703125 37.003906 14.988281 37.003906 15.335938 L 37.003906 21.660156 C 37.003906 22.007812 36.722656 22.289062 36.375 22.289062 L 32.726562 22.289062 C 32.378906 22.289062 32.097656 22.007812 32.097656 21.660156 Z M 32.097656 21.660156 " clip-rule="nonzero"/></clipPath><clipPath id="78152ae33c"><path d="M 0.0976562 0.699219 L 5.003906 0.699219 L 5.003906 8.289062 L 0.0976562 8.289062 Z M 0.0976562 0.699219 " clip-rule="nonzero"/></clipPath><clipPath id="7399aa3782"><path d="M 0.0976562 7.660156 L 0.0976562 1.335938 C 0.0976562 0.988281 0.378906 0.703125 0.726562 0.703125 L 4.375 0.703125 C 4.722656 0.703125 5.003906 0.988281 5.003906 1.335938 L 5.003906 7.660156 C 5.003906 8.007812 4.722656 8.289062 4.375 8.289062 L 0.726562 8.289062 C 0.378906 8.289062 0.0976562 8.007812 0.0976562 7.660156 Z M 0.0976562 7.660156 " clip-rule="nonzero"/></clipPath><clipPath id="13cde12317"><rect x="0" width="6" y="0" height="9"/></clipPath><clipPath id="e0cc530ad6"><path d="M 1 6.425781 L 36 6.425781 L 36 19 L 1 19 Z M 1 6.425781 " clip-rule="nonzero"/></clipPath><clipPath id="248aa5305b"><path d="M 2 17 L 35 17 L 35 30.851562 L 2 30.851562 Z M 2 17 " clip-rule="nonzero"/></clipPath></defs><g clip-path="url(#60b872a376)"><g clip-path="url(#5c5fb2738f)"><g transform="matrix(1, 0, 0, 1, 32, 14)"><g clip-path="url(#13cde12317)"><g clip-path="url(#78152ae33c)"><g clip-path="url(#7399aa3782)"><path fill="#ffffff" d="M 0.0976562 8.289062 L 0.0976562 0.699219 L 5.003906 0.699219 L 5.003906 8.289062 Z M 0.0976562 8.289062 " fill-opacity="1" fill-rule="nonzero"/></g></g></g></g></g></g><g clip-path="url(#e0cc530ad6)"><path fill="#ffffff" d="M 35.125 7.714844 C 33.996094 6.828125 32.546875 6.425781 31.179688 6.425781 L 5.90625 6.425781 C 4.214844 6.425781 2.929688 6.910156 1.960938 7.714844 L 3.410156 8.679688 L 14.277344 15.683594 C 14.359375 15.683594 14.4375 15.761719 14.597656 15.84375 L 18.542969 18.417969 L 33.675781 8.597656 Z M 35.125 7.714844 " fill-opacity="1" fill-rule="nonzero"/></g><path fill="#ffffff" d="M 0.113281 24.777344 C 0.113281 26.066406 0.433594 27.433594 1.320312 28.480469 L 2.445312 27.351562 L 12.75 16.648438 L 2.285156 9.886719 L 0.917969 9 C 0.351562 9.96875 0.03125 11.175781 0.03125 12.300781 L 0.03125 24.777344 Z M 0.113281 24.777344 " fill-opacity="1" fill-rule="nonzero"/><g clip-path="url(#248aa5305b)"><path fill="#ffffff" d="M 33.515625 28.398438 L 22.96875 17.453125 L 18.945312 20.027344 C 18.867188 20.027344 18.867188 20.109375 18.785156 20.109375 C 18.785156 20.109375 18.703125 20.109375 18.703125 20.109375 C 18.625 20.109375 18.542969 20.109375 18.542969 20.109375 C 18.464844 20.109375 18.382812 20.109375 18.382812 20.109375 C 18.382812 20.109375 18.300781 20.109375 18.300781 20.109375 C 18.222656 20.109375 18.222656 20.109375 18.140625 20.027344 L 14.117188 17.453125 L 3.574219 28.398438 L 2.445312 29.605469 C 3.332031 30.171875 4.457031 30.574219 5.90625 30.574219 L 31.179688 30.574219 C 32.386719 30.574219 33.59375 30.25 34.640625 29.605469 Z M 33.515625 28.398438 " fill-opacity="1" fill-rule="nonzero"/></g><path fill="#ffffff" d="M 34.800781 9.804688 L 24.339844 16.566406 L 34.722656 27.351562 L 35.847656 28.558594 C 36.574219 27.675781 36.976562 26.46875 36.976562 24.859375 L 36.976562 12.222656 C 36.976562 10.851562 36.652344 9.804688 36.171875 8.921875 Z M 34.800781 9.804688 " fill-opacity="1" fill-rule="nonzero"/></svg>