<svg xmlns="http://www.w3.org/2000/svg" xmlns:xlink="http://www.w3.org/1999/xlink" width="50" zoomAndPan="magnify" viewBox="0 0 37.5 37.499999" height="50" preserveAspectRatio="xMidYMid meet" version="1.0"><defs><clipPath id="040ffe82a0"><path d="M 26.117188 2.480469 L 29.8125 2.480469 L 29.8125 20.234375 L 26.117188 20.234375 Z M 26.117188 2.480469 " clip-rule="nonzero"/></clipPath><clipPath id="657d74f7f8"><path d="M 26.117188 19.605469 L 26.117188 3.121094 C 26.117188 2.773438 26.398438 2.492188 26.746094 2.492188 L 29.183594 2.492188 C 29.53125 2.492188 29.8125 2.773438 29.8125 3.121094 L 29.8125 19.605469 C 29.8125 19.953125 29.53125 20.234375 29.183594 20.234375 L 26.746094 20.234375 C 26.398438 20.234375 26.117188 19.953125 26.117188 19.605469 Z M 26.117188 19.605469 " clip-rule="nonzero"/></clipPath><clipPath id="eb77c28cf3"><path d="M 0.117188 0.480469 L 3.8125 0.480469 L 3.8125 18.234375 L 0.117188 18.234375 Z M 0.117188 0.480469 " clip-rule="nonzero"/></clipPath><clipPath id="8952d4f31b"><path d="M 0.117188 17.605469 L 0.117188 1.121094 C 0.117188 0.773438 0.398438 0.492188 0.746094 0.492188 L 3.183594 0.492188 C 3.53125 0.492188 3.8125 0.773438 3.8125 1.121094 L 3.8125 17.605469 C 3.8125 17.953125 3.53125 18.234375 3.183594 18.234375 L 0.746094 18.234375 C 0.398438 18.234375 0.117188 17.953125 0.117188 17.605469 Z M 0.117188 17.605469 " clip-rule="nonzero"/></clipPath><clipPath id="3495272ca5"><rect x="0" width="4" y="0" height="19"/></clipPath><clipPath id="b2d46b9cb7"><path d="M 0 1.277344 L 37 1.277344 L 37 36 L 0 36 Z M 0 1.277344 " clip-rule="nonzero"/></clipPath></defs><g clip-path="url(#040ffe82a0)"><g clip-path="url(#657d74f7f8)"><g transform="matrix(1, 0, 0, 1, 26, 2)"><g clip-path="url(#3495272ca5)"><g clip-path="url(#eb77c28cf3)"><g clip-path="url(#8952d4f31b)"><path fill="#ffffff" d="M 0.117188 18.234375 L 0.117188 0.492188 L 3.8125 0.492188 L 3.8125 18.234375 Z M 0.117188 18.234375 " fill-opacity="1" fill-rule="nonzero"/></g></g></g></g></g></g><g clip-path="url(#b2d46b9cb7)"><path fill="#ffffff" d="M 34.320312 19.285156 L 32.863281 19.285156 L 32.863281 34.207031 C 32.851562 34.410156 32.800781 34.601562 32.710938 34.785156 C 32.621094 34.96875 32.503906 35.128906 32.351562 35.261719 C 32.199219 35.398438 32.027344 35.5 31.835938 35.570312 C 31.644531 35.636719 31.445312 35.664062 31.242188 35.65625 L 22.644531 35.65625 L 22.644531 25.480469 C 22.644531 25.339844 22.621094 25.203125 22.566406 25.074219 C 22.511719 24.945312 22.433594 24.828125 22.335938 24.730469 C 22.234375 24.628906 22.121094 24.554688 21.992188 24.5 C 21.859375 24.445312 21.726562 24.417969 21.582031 24.417969 L 15.347656 24.417969 C 15.207031 24.417969 15.070312 24.445312 14.941406 24.5 C 14.808594 24.554688 14.695312 24.628906 14.597656 24.730469 C 14.496094 24.828125 14.417969 24.945312 14.367188 25.074219 C 14.3125 25.203125 14.285156 25.339844 14.285156 25.480469 L 14.285156 35.652344 L 5.6875 35.652344 C 5.484375 35.664062 5.289062 35.636719 5.097656 35.570312 C 4.90625 35.503906 4.734375 35.402344 4.582031 35.265625 C 4.433594 35.128906 4.3125 34.972656 4.222656 34.789062 C 4.136719 34.605469 4.085938 34.414062 4.074219 34.210938 L 4.074219 19.285156 L 2.613281 19.285156 C 0.992188 19.285156 0.113281 17.761719 1.175781 16.78125 L 17.167969 1.996094 C 17.371094 1.824219 17.59375 1.695312 17.84375 1.605469 C 18.09375 1.511719 18.347656 1.46875 18.613281 1.46875 C 18.875 1.46875 19.132812 1.515625 19.378906 1.605469 C 19.628906 1.699219 19.851562 1.832031 20.054688 2.003906 C 25.289062 6.929688 30.527344 11.859375 35.769531 16.785156 C 36.808594 17.773438 35.933594 19.285156 34.320312 19.285156 Z M 34.320312 19.285156 " fill-opacity="1" fill-rule="nonzero"/></g></svg>