<?xml version="1.0" standalone="no"?>
<!DOCTYPE svg PUBLIC "-//W3C//DTD SVG 20010904//EN"
 "http://www.w3.org/TR/2001/REC-SVG-20010904/DTD/svg10.dtd">
<svg version="1.0" xmlns="http://www.w3.org/2000/svg"
 width="512.000000pt" height="512.000000pt" viewBox="0 0 512.000000 512.000000"
 preserveAspectRatio="xMidYMid meet">

<g transform="translate(0.000000,512.000000) scale(0.100000,-0.100000)"
fill="#fa572a" stroke="none">
<path d="M73 3885 c-50 -21 -69 -62 -65 -135 3 -34 2471 -2505 2519 -2521 24
-7 42 -7 66 0 48 16 2516 2487 2519 2521 2 45 -3 75 -18 98 -21 32 -78 55
-118 47 -24 -5 -281 -256 -1224 -1198 l-1192 -1192 -1188 1187 c-673 674
-1199 1192 -1215 1198 -36 13 -45 12 -84 -5z"/>
</g>
</svg>
