<svg xmlns="http://www.w3.org/2000/svg" xmlns:xlink="http://www.w3.org/1999/xlink" width="50" zoomAndPan="magnify" viewBox="0 0 37.5 37.499999" height="50" preserveAspectRatio="xMidYMid meet" version="1.0"><defs><clipPath id="9742daa698"><path d="M 0 0 L 36.265625 0 L 36.265625 37 L 0 37 Z M 0 0 " clip-rule="nonzero"/></clipPath><clipPath id="dc00d05f3f"><path d="M 13.511719 13.765625 L 22.984375 13.765625 L 22.984375 23.238281 L 13.511719 23.238281 Z M 13.511719 13.765625 " clip-rule="nonzero"/></clipPath><clipPath id="d0cbe7594b"><path d="M 18.25 13.765625 C 15.632812 13.765625 13.511719 15.886719 13.511719 18.503906 C 13.511719 21.121094 15.632812 23.238281 18.25 23.238281 C 20.863281 23.238281 22.984375 21.121094 22.984375 18.503906 C 22.984375 15.886719 20.863281 13.765625 18.25 13.765625 Z M 18.25 13.765625 " clip-rule="nonzero"/></clipPath><clipPath id="323591fbff"><path d="M 0.511719 0.765625 L 9.984375 0.765625 L 9.984375 10.238281 L 0.511719 10.238281 Z M 0.511719 0.765625 " clip-rule="nonzero"/></clipPath><clipPath id="d370f5ff91"><path d="M 5.25 0.765625 C 2.632812 0.765625 0.511719 2.886719 0.511719 5.503906 C 0.511719 8.121094 2.632812 10.238281 5.25 10.238281 C 7.863281 10.238281 9.984375 8.121094 9.984375 5.503906 C 9.984375 2.886719 7.863281 0.765625 5.25 0.765625 Z M 5.25 0.765625 " clip-rule="nonzero"/></clipPath><clipPath id="c604fd4a81"><rect x="0" width="10" y="0" height="11"/></clipPath><clipPath id="fbc332e9c8"><path d="M 24.613281 6.070312 L 29.941406 6.070312 L 29.941406 11.398438 L 24.613281 11.398438 Z M 24.613281 6.070312 " clip-rule="nonzero"/></clipPath><clipPath id="ba912314aa"><path d="M 27.277344 6.070312 C 25.808594 6.070312 24.613281 7.261719 24.613281 8.734375 C 24.613281 10.207031 25.808594 11.398438 27.277344 11.398438 C 28.75 11.398438 29.941406 10.207031 29.941406 8.734375 C 29.941406 7.261719 28.75 6.070312 27.277344 6.070312 Z M 27.277344 6.070312 " clip-rule="nonzero"/></clipPath><clipPath id="d15d82c27b"><path d="M 0.613281 0.0703125 L 5.941406 0.0703125 L 5.941406 5.398438 L 0.613281 5.398438 Z M 0.613281 0.0703125 " clip-rule="nonzero"/></clipPath><clipPath id="c545d2c928"><path d="M 3.277344 0.0703125 C 1.808594 0.0703125 0.613281 1.261719 0.613281 2.734375 C 0.613281 4.207031 1.808594 5.398438 3.277344 5.398438 C 4.75 5.398438 5.941406 4.207031 5.941406 2.734375 C 5.941406 1.261719 4.75 0.0703125 3.277344 0.0703125 Z M 3.277344 0.0703125 " clip-rule="nonzero"/></clipPath><clipPath id="81341ba24f"><rect x="0" width="6" y="0" height="6"/></clipPath></defs><g clip-path="url(#9742daa698)"><path fill="#fa572a" d="M 25.90625 0.105469 L 10.605469 0.105469 C 3.960938 0.105469 0.0117188 4.101562 0.0117188 10.789062 L 0.0117188 26.203125 C 0.0117188 32.917969 3.960938 36.902344 10.605469 36.902344 L 25.878906 36.902344 C 32.523438 36.902344 36.484375 32.917969 36.484375 26.21875 L 36.484375 10.789062 C 36.5 4.101562 32.535156 0.105469 25.90625 0.105469 Z M 18.257812 25.644531 C 17.785156 25.648438 17.320312 25.609375 16.859375 25.519531 C 16.398438 25.433594 15.949219 25.300781 15.511719 25.125 C 15.078125 24.945312 14.664062 24.730469 14.273438 24.472656 C 13.878906 24.214844 13.515625 23.917969 13.179688 23.589844 C 12.847656 23.257812 12.546875 22.898438 12.285156 22.511719 C 12.019531 22.121094 11.796875 21.710938 11.613281 21.277344 C 11.433594 20.84375 11.292969 20.398438 11.199219 19.9375 C 11.105469 19.480469 11.054688 19.011719 11.054688 18.542969 C 11.050781 18.074219 11.09375 17.609375 11.183594 17.148438 C 11.273438 16.6875 11.40625 16.238281 11.582031 15.800781 C 11.761719 15.367188 11.980469 14.953125 12.238281 14.5625 C 12.496094 14.171875 12.792969 13.808594 13.125 13.472656 C 13.453125 13.140625 13.816406 12.84375 14.203125 12.578125 C 14.59375 12.316406 15.003906 12.09375 15.4375 11.914062 C 15.871094 11.734375 16.320312 11.59375 16.78125 11.503906 C 17.242188 11.410156 17.707031 11.363281 18.175781 11.359375 C 18.644531 11.359375 19.109375 11.402344 19.570312 11.496094 C 20.03125 11.585938 20.480469 11.71875 20.914062 11.898438 C 21.347656 12.078125 21.761719 12.296875 22.152344 12.558594 C 22.542969 12.816406 22.90625 13.113281 23.238281 13.445312 C 23.570312 13.777344 23.867188 14.136719 24.128906 14.527344 C 24.390625 14.917969 24.613281 15.332031 24.792969 15.765625 C 24.972656 16.199219 25.109375 16.648438 25.199219 17.105469 C 25.292969 17.566406 25.339844 18.035156 25.339844 18.503906 C 25.339844 18.96875 25.296875 19.433594 25.207031 19.890625 C 25.117188 20.347656 24.984375 20.792969 24.804688 21.226562 C 24.628906 21.65625 24.410156 22.070312 24.152344 22.457031 C 23.894531 22.847656 23.601562 23.207031 23.273438 23.539062 C 22.945312 23.871094 22.585938 24.167969 22.199219 24.425781 C 21.8125 24.6875 21.40625 24.910156 20.972656 25.089844 C 20.542969 25.269531 20.101562 25.40625 19.640625 25.5 C 19.183594 25.59375 18.722656 25.644531 18.257812 25.644531 Z M 29.054688 9.082031 C 28.964844 9.308594 28.835938 9.507812 28.675781 9.6875 C 28.496094 9.851562 28.296875 9.984375 28.078125 10.082031 C 27.851562 10.175781 27.621094 10.222656 27.378906 10.230469 C 26.867188 10.230469 26.4375 10.050781 26.082031 9.6875 C 25.917969 9.507812 25.792969 9.308594 25.703125 9.082031 C 25.5 8.617188 25.5 8.152344 25.703125 7.6875 C 25.789062 7.460938 25.914062 7.261719 26.082031 7.085938 C 26.296875 6.867188 26.550781 6.714844 26.839844 6.625 C 27.132812 6.539062 27.429688 6.523438 27.726562 6.585938 C 27.851562 6.597656 27.96875 6.632812 28.078125 6.6875 C 28.191406 6.730469 28.296875 6.785156 28.398438 6.847656 C 28.484375 6.910156 28.585938 7.011719 28.675781 7.085938 C 28.839844 7.261719 28.96875 7.460938 29.054688 7.6875 C 29.152344 7.90625 29.203125 8.136719 29.199219 8.378906 C 29.203125 8.625 29.15625 8.859375 29.054688 9.082031 Z M 29.054688 9.082031 " fill-opacity="1" fill-rule="nonzero"/></g><g clip-path="url(#dc00d05f3f)"><g clip-path="url(#d0cbe7594b)"><g transform="matrix(1, 0, 0, 1, 13, 13)"><g clip-path="url(#c604fd4a81)"><g clip-path="url(#323591fbff)"><g clip-path="url(#d370f5ff91)"><path fill="#fa572a" d="M 0.511719 0.765625 L 9.984375 0.765625 L 9.984375 10.238281 L 0.511719 10.238281 Z M 0.511719 0.765625 " fill-opacity="1" fill-rule="nonzero"/></g></g></g></g></g></g><g clip-path="url(#fbc332e9c8)"><g clip-path="url(#ba912314aa)"><g transform="matrix(1, 0, 0, 1, 24, 6)"><g clip-path="url(#81341ba24f)"><g clip-path="url(#d15d82c27b)"><g clip-path="url(#c545d2c928)"><path fill="#ffffff" d="M 0.613281 0.0703125 L 5.941406 0.0703125 L 5.941406 5.398438 L 0.613281 5.398438 Z M 0.613281 0.0703125 " fill-opacity="1" fill-rule="nonzero"/></g></g></g></g></g></g></svg>