<svg xmlns="http://www.w3.org/2000/svg" xmlns:xlink="http://www.w3.org/1999/xlink" width="50" zoomAndPan="magnify" viewBox="0 0 37.5 37.499999" height="50" preserveAspectRatio="xMidYMid meet" version="1.0"><defs><clipPath id="1ea787bc58"><path d="M 1.144531 0 L 35.929688 0 L 35.929688 37 L 1.144531 37 Z M 1.144531 0 " clip-rule="nonzero"/></clipPath><clipPath id="983d9efa70"><path d="M 11.171875 31.816406 L 21.078125 31.816406 L 21.078125 34.785156 L 11.171875 34.785156 Z M 11.171875 31.816406 " clip-rule="nonzero"/></clipPath><clipPath id="5286a149b0"><path d="M 11.8125 31.828125 L 20.441406 31.828125 C 20.785156 31.828125 21.070312 32.109375 21.070312 32.457031 L 21.070312 34.15625 C 21.070312 34.503906 20.785156 34.785156 20.441406 34.785156 L 11.8125 34.785156 C 11.464844 34.785156 11.183594 34.503906 11.183594 34.15625 L 11.183594 32.457031 C 11.183594 32.109375 11.464844 31.828125 11.8125 31.828125 Z M 11.8125 31.828125 " clip-rule="nonzero"/></clipPath><clipPath id="0621c872b7"><path d="M 0.171875 0.816406 L 10.078125 0.816406 L 10.078125 3.785156 L 0.171875 3.785156 Z M 0.171875 0.816406 " clip-rule="nonzero"/></clipPath><clipPath id="ad8d25eddd"><path d="M 0.8125 0.828125 L 9.441406 0.828125 C 9.785156 0.828125 10.070312 1.109375 10.070312 1.457031 L 10.070312 3.15625 C 10.070312 3.503906 9.785156 3.785156 9.441406 3.785156 L 0.8125 3.785156 C 0.464844 3.785156 0.183594 3.503906 0.183594 3.15625 L 0.183594 1.457031 C 0.183594 1.109375 0.464844 0.828125 0.8125 0.828125 Z M 0.8125 0.828125 " clip-rule="nonzero"/></clipPath><clipPath id="e20bea4a95"><rect x="0" width="11" y="0" height="4"/></clipPath></defs><g clip-path="url(#1ea787bc58)"><path fill="#ffffff" d="M 28.308594 18.949219 L 35.605469 11.652344 L 28.308594 4.355469 L 18.503906 4.355469 L 18.503906 0.824219 C 18.503906 0.378906 18.140625 0.0195312 17.695312 0.0195312 L 14.789062 0.0195312 C 14.34375 0.0195312 13.980469 0.378906 13.980469 0.824219 L 13.980469 4.355469 L 1.78125 4.355469 C 1.570312 4.355469 1.398438 4.527344 1.398438 4.738281 L 1.398438 18.566406 C 1.398438 18.777344 1.570312 18.949219 1.78125 18.949219 L 13.980469 18.949219 L 13.980469 21.8125 L 9.46875 21.8125 L 5.820312 25.460938 L 9.46875 29.109375 L 13.980469 29.109375 L 13.980469 36.183594 C 13.980469 36.625 14.34375 36.988281 14.789062 36.988281 L 17.695312 36.988281 C 18.140625 36.988281 18.503906 36.625 18.503906 36.183594 L 18.503906 29.109375 L 24.074219 29.109375 C 24.289062 29.109375 24.460938 28.9375 24.460938 28.726562 L 24.460938 22.195312 C 24.460938 21.984375 24.289062 21.8125 24.074219 21.8125 L 18.503906 21.8125 L 18.503906 18.949219 Z M 28.308594 18.949219 " fill-opacity="1" fill-rule="nonzero"/></g><g clip-path="url(#983d9efa70)"><g clip-path="url(#5286a149b0)"><g transform="matrix(1, 0, 0, 1, 11, 31)"><g clip-path="url(#e20bea4a95)"><g clip-path="url(#0621c872b7)"><g clip-path="url(#ad8d25eddd)"><path fill="#ffffff" d="M 0.183594 0.828125 L 10.066406 0.828125 L 10.066406 3.785156 L 0.183594 3.785156 Z M 0.183594 0.828125 " fill-opacity="1" fill-rule="nonzero"/></g></g></g></g></g></g></svg>