<svg xmlns="http://www.w3.org/2000/svg" xmlns:xlink="http://www.w3.org/1999/xlink" width="50" zoomAndPan="magnify" viewBox="0 0 37.5 37.499999" height="50" preserveAspectRatio="xMidYMid meet" version="1.0"><defs><clipPath id="820e2467e3"><path d="M 26.804688 27.039062 L 30.503906 27.039062 L 30.503906 32.09375 L 26.804688 32.09375 Z M 26.804688 27.039062 " clip-rule="nonzero"/></clipPath><clipPath id="1b59e83318"><path d="M 26.804688 31.464844 L 26.804688 27.675781 C 26.804688 27.328125 27.085938 27.046875 27.433594 27.046875 L 29.875 27.046875 C 30.222656 27.046875 30.503906 27.328125 30.503906 27.675781 L 30.503906 31.464844 C 30.503906 31.8125 30.222656 32.09375 29.875 32.09375 L 27.433594 32.09375 C 27.085938 32.09375 26.804688 31.8125 26.804688 31.464844 Z M 26.804688 31.464844 " clip-rule="nonzero"/></clipPath><clipPath id="a189f01a7b"><path d="M 0.804688 0.0390625 L 4.503906 0.0390625 L 4.503906 5.09375 L 0.804688 5.09375 Z M 0.804688 0.0390625 " clip-rule="nonzero"/></clipPath><clipPath id="097e8b1b1e"><path d="M 0.804688 4.464844 L 0.804688 0.675781 C 0.804688 0.328125 1.085938 0.046875 1.433594 0.046875 L 3.875 0.046875 C 4.222656 0.046875 4.503906 0.328125 4.503906 0.675781 L 4.503906 4.464844 C 4.503906 4.8125 4.222656 5.09375 3.875 5.09375 L 1.433594 5.09375 C 1.085938 5.09375 0.804688 4.8125 0.804688 4.464844 Z M 0.804688 4.464844 " clip-rule="nonzero"/></clipPath><clipPath id="ef36325b3e"><rect x="0" width="5" y="0" height="6"/></clipPath><clipPath id="b13236e9b4"><path d="M 0 0.277344 L 37 0.277344 L 37 36.542969 L 0 36.542969 Z M 0 0.277344 " clip-rule="nonzero"/></clipPath></defs><g clip-path="url(#820e2467e3)"><g clip-path="url(#1b59e83318)"><g transform="matrix(1, 0, 0, 1, 26, 27)"><g clip-path="url(#ef36325b3e)"><g clip-path="url(#a189f01a7b)"><g clip-path="url(#097e8b1b1e)"><path fill="#ffffff" d="M 0.804688 5.09375 L 0.804688 0.0507812 L 4.503906 0.0507812 L 4.503906 5.09375 Z M 0.804688 5.09375 " fill-opacity="1" fill-rule="nonzero"/></g></g></g></g></g></g><g clip-path="url(#b13236e9b4)"><path fill="#ffffff" d="M 36.605469 27.898438 C 36.441406 27.320312 35.980469 26.875 35.398438 26.734375 C 32.890625 26.128906 30.121094 24.894531 27.382812 23.167969 C 26.894531 22.859375 26.269531 22.824219 25.753906 23.082031 C 25.003906 23.449219 24.324219 23.941406 23.726562 24.535156 C 22.988281 25.273438 22.421875 26.128906 22.035156 27.078125 C 19.78125 25.570312 17.601562 23.765625 15.550781 21.71875 C 13.503906 19.667969 11.703125 17.488281 10.191406 15.230469 C 11.144531 14.84375 12 14.277344 12.738281 13.542969 C 13.335938 12.945312 13.824219 12.265625 14.195312 11.515625 C 14.453125 11 14.417969 10.375 14.109375 9.882812 C 12.382812 7.144531 11.152344 4.375 10.546875 1.871094 C 10.40625 1.285156 9.960938 0.824219 9.382812 0.660156 C 8.113281 0.304688 6.761719 0.277344 5.480469 0.585938 C 4.292969 0.871094 3.179688 1.441406 2.222656 2.269531 C 0.160156 4.703125 0.0078125 8.679688 1.792969 13.464844 C 3.429688 17.859375 6.578125 22.523438 10.660156 26.609375 C 14.742188 30.691406 19.40625 33.84375 23.796875 35.480469 C 26.011719 36.308594 28.054688 36.71875 29.847656 36.71875 C 31.929688 36.71875 33.683594 36.164062 34.992188 35.058594 L 35.023438 35.027344 C 35.824219 34.101562 36.394531 32.988281 36.679688 31.800781 C 36.988281 30.519531 36.964844 29.167969 36.605469 27.898438 " fill-opacity="1" fill-rule="nonzero"/></g></svg>