<svg xmlns="http://www.w3.org/2000/svg" xmlns:xlink="http://www.w3.org/1999/xlink" width="50" zoomAndPan="magnify" viewBox="0 0 37.5 37.499999" height="50" preserveAspectRatio="xMidYMid meet" version="1.0"><defs><clipPath id="67a0fb1c0a"><path d="M 0 0 L 37.007812 0 L 37.007812 37.007812 L 0 37.007812 Z M 0 0 " clip-rule="nonzero"/></clipPath><clipPath id="370d45c7f8"><path d="M 18.503906 0 C 8.285156 0 0 8.285156 0 18.503906 C 0 28.722656 8.285156 37.007812 18.503906 37.007812 C 28.722656 37.007812 37.007812 28.722656 37.007812 18.503906 C 37.007812 8.285156 28.722656 0 18.503906 0 Z M 18.503906 0 " clip-rule="nonzero"/></clipPath><clipPath id="b8f6210d5f"><path d="M 0 0 L 37.007812 0 L 37.007812 37.007812 L 0 37.007812 Z M 0 0 " clip-rule="nonzero"/></clipPath><clipPath id="8b65e96a8d"><path d="M 18.503906 0 C 8.285156 0 0 8.285156 0 18.503906 C 0 28.722656 8.285156 37.007812 18.503906 37.007812 C 28.722656 37.007812 37.007812 28.722656 37.007812 18.503906 C 37.007812 8.285156 28.722656 0 18.503906 0 Z M 18.503906 0 " clip-rule="nonzero"/></clipPath><clipPath id="db1bed618e"><rect x="0" width="38" y="0" height="38"/></clipPath><clipPath id="db5a390e9b"><path d="M 8.125 5.261719 L 28.847656 5.261719 L 28.847656 31.90625 L 8.125 31.90625 Z M 8.125 5.261719 " clip-rule="nonzero"/></clipPath></defs><g clip-path="url(#67a0fb1c0a)"><g clip-path="url(#370d45c7f8)"><g><g clip-path="url(#db1bed618e)"><g clip-path="url(#b8f6210d5f)"><g clip-path="url(#8b65e96a8d)"><path fill="#c16e66" d="M 0 0 L 37.007812 0 L 37.007812 37.007812 L 0 37.007812 Z M 0 0 " fill-opacity="1" fill-rule="nonzero"/></g></g></g></g></g></g><g clip-path="url(#db5a390e9b)"><path fill="#ffffff" d="M 28.835938 16.769531 C 28.832031 16.757812 28.828125 16.746094 28.824219 16.734375 C 28.765625 16.429688 28.582031 16.195312 28.34375 16.003906 C 28.292969 15.960938 28.285156 15.59375 28.273438 15.503906 C 28.261719 15.394531 28.242188 15.285156 28.210938 15.179688 C 28.191406 15.109375 28.179688 15.035156 28.152344 14.96875 C 28.054688 14.734375 27.96875 14.5 27.851562 14.273438 C 27.667969 13.933594 27.445312 13.621094 27.179688 13.335938 C 26.335938 12.410156 25.253906 11.777344 24.105469 11.308594 C 22.746094 10.75 21.332031 10.425781 19.867188 10.328125 C 19.777344 10.324219 19.6875 10.304688 19.597656 10.300781 C 19.585938 10.234375 19.589844 10.167969 19.582031 10.101562 C 19.542969 9.570312 19.582031 9.007812 19.8125 8.519531 C 19.863281 8.421875 19.917969 8.328125 19.980469 8.238281 C 20.179688 7.941406 20.5 7.636719 20.871094 7.585938 C 21.019531 7.574219 21.167969 7.570312 21.316406 7.578125 C 21.578125 7.578125 21.839844 7.578125 22.101562 7.578125 C 22.253906 7.578125 22.429688 7.597656 22.574219 7.5625 L 22.59375 7.558594 C 22.726562 7.523438 22.847656 7.46875 22.960938 7.394531 C 23.21875 7.234375 23.382812 7.007812 23.453125 6.714844 C 23.492188 6.542969 23.492188 6.375 23.457031 6.207031 C 23.449219 6.195312 23.449219 6.183594 23.445312 6.171875 C 23.417969 6.050781 23.375 5.933594 23.308594 5.828125 C 23.167969 5.601562 22.972656 5.4375 22.722656 5.339844 C 22.625 5.308594 22.523438 5.28125 22.421875 5.261719 L 20.828125 5.261719 C 20.605469 5.316406 20.378906 5.332031 20.160156 5.402344 C 19.289062 5.671875 18.507812 6.308594 18.042969 7.089844 C 17.714844 7.644531 17.457031 8.261719 17.398438 8.910156 C 17.378906 9.140625 17.390625 9.371094 17.378906 9.601562 C 17.355469 9.835938 17.324219 10.066406 17.277344 10.296875 C 16.59375 10.363281 15.914062 10.425781 15.238281 10.554688 C 14.453125 10.707031 13.691406 10.933594 12.949219 11.234375 C 12.613281 11.371094 12.28125 11.511719 11.960938 11.679688 C 11.113281 12.117188 10.382812 12.703125 9.769531 13.4375 C 9.582031 13.675781 9.410156 13.929688 9.265625 14.199219 C 8.972656 14.71875 8.742188 15.277344 8.703125 15.878906 C 8.699219 15.902344 8.703125 15.972656 8.683594 15.988281 C 8.4375 16.199219 8.230469 16.464844 8.1875 16.796875 L 8.183594 16.816406 C 8.121094 17.203125 8.210938 17.550781 8.453125 17.855469 C 8.574219 18.011719 8.722656 18.132812 8.898438 18.21875 C 8.976562 18.253906 9.058594 18.277344 9.144531 18.292969 C 9.160156 18.296875 9.203125 18.300781 9.210938 18.3125 C 9.210938 18.3125 9.210938 18.359375 9.210938 18.363281 C 9.214844 18.449219 9.214844 18.539062 9.21875 18.625 C 9.21875 18.816406 9.214844 19.015625 9.226562 19.207031 C 9.238281 19.347656 9.253906 19.488281 9.269531 19.625 C 9.273438 19.695312 9.273438 19.761719 9.28125 19.828125 C 9.328125 20.183594 9.363281 20.542969 9.429688 20.894531 C 9.515625 21.332031 9.625 21.78125 9.746094 22.210938 C 10.296875 24.140625 11.230469 25.863281 12.546875 27.375 C 12.699219 27.550781 12.863281 27.707031 13.023438 27.871094 C 13.480469 28.359375 13.972656 28.8125 14.5 29.230469 C 14.964844 29.585938 15.449219 29.914062 15.949219 30.214844 C 16.21875 30.375 16.503906 30.539062 16.742188 30.742188 C 17.054688 31.011719 17.261719 31.375 17.652344 31.550781 C 17.796875 31.613281 17.941406 31.664062 18.097656 31.699219 C 18.191406 31.714844 18.289062 31.71875 18.382812 31.742188 L 18.738281 31.742188 C 18.828125 31.71875 18.925781 31.710938 19.019531 31.691406 C 19.203125 31.644531 19.371094 31.574219 19.53125 31.476562 C 19.785156 31.324219 19.957031 31.128906 20.148438 30.910156 C 20.210938 30.828125 20.28125 30.753906 20.359375 30.683594 C 20.496094 30.585938 20.648438 30.503906 20.792969 30.417969 C 21.007812 30.289062 21.214844 30.160156 21.425781 30.023438 C 21.71875 29.828125 22.015625 29.632812 22.296875 29.425781 C 22.8125 29.035156 23.300781 28.613281 23.757812 28.15625 C 23.910156 28.007812 24.050781 27.851562 24.195312 27.695312 C 25.734375 26.039062 26.796875 24.117188 27.386719 21.933594 C 27.515625 21.453125 27.609375 20.96875 27.675781 20.480469 C 27.726562 20.117188 27.78125 19.753906 27.808594 19.386719 C 27.835938 19.035156 27.832031 18.675781 27.835938 18.320312 C 27.882812 18.304688 27.933594 18.296875 27.988281 18.289062 C 28.25 18.230469 28.519531 17.984375 28.65625 17.761719 C 28.804688 17.53125 28.867188 17.28125 28.851562 17.007812 C 28.855469 16.929688 28.851562 16.847656 28.835938 16.769531 Z M 18.191406 9.554688 C 18.203125 9.40625 18.199219 9.261719 18.210938 9.113281 C 18.222656 8.960938 18.242188 8.808594 18.269531 8.65625 C 18.386719 8.113281 18.617188 7.621094 18.960938 7.183594 C 19.347656 6.699219 19.894531 6.316406 20.5 6.164062 C 20.636719 6.136719 20.773438 6.117188 20.910156 6.105469 C 21.179688 6.085938 21.460938 6.105469 21.734375 6.105469 C 21.886719 6.105469 22.042969 6.105469 22.195312 6.105469 C 22.277344 6.101562 22.359375 6.109375 22.4375 6.132812 L 22.453125 6.136719 C 22.511719 6.160156 22.5625 6.195312 22.597656 6.246094 C 22.664062 6.324219 22.691406 6.414062 22.675781 6.515625 C 22.65625 6.65625 22.539062 6.730469 22.410156 6.765625 C 22.324219 6.792969 22.195312 6.777344 22.101562 6.78125 C 21.859375 6.785156 21.621094 6.785156 21.378906 6.78125 C 21.175781 6.777344 20.957031 6.761719 20.757812 6.789062 C 20.449219 6.839844 20.167969 6.960938 19.917969 7.152344 C 19.273438 7.628906 18.921875 8.378906 18.808594 9.152344 C 18.792969 9.273438 18.785156 9.398438 18.785156 9.519531 C 18.773438 9.773438 18.765625 10.023438 18.765625 10.277344 C 18.660156 10.277344 18.15625 10.300781 18.097656 10.269531 C 18.144531 10.035156 18.175781 9.796875 18.191406 9.554688 Z M 19.265625 30.300781 C 19.203125 30.425781 19.109375 30.503906 18.976562 30.539062 C 18.800781 30.550781 18.636719 30.4375 18.492188 30.347656 C 17.863281 29.953125 17.277344 29.507812 16.730469 29.007812 C 16.597656 28.886719 16.457031 28.773438 16.328125 28.648438 C 15.121094 27.492188 14.136719 26.167969 13.371094 24.679688 C 12.875 23.691406 12.515625 22.65625 12.285156 21.574219 C 12.230469 21.324219 12.191406 21.070312 12.160156 20.8125 C 12.144531 20.714844 12.140625 20.613281 12.148438 20.511719 C 12.15625 20.460938 12.171875 20.417969 12.203125 20.375 C 12.269531 20.277344 12.367188 20.222656 12.484375 20.207031 L 12.492188 20.207031 C 12.59375 20.199219 12.6875 20.222656 12.773438 20.28125 C 12.867188 20.351562 12.921875 20.449219 12.933594 20.566406 C 12.941406 20.617188 12.957031 20.667969 12.964844 20.722656 C 13.03125 21.273438 13.148438 21.816406 13.316406 22.347656 L 13.390625 22.585938 C 13.484375 22.902344 13.597656 23.214844 13.734375 23.515625 C 14.628906 25.636719 16.089844 27.507812 17.894531 28.929688 C 18.183594 29.152344 18.488281 29.371094 18.785156 29.578125 C 18.898438 29.65625 19.027344 29.722656 19.128906 29.808594 C 19.183594 29.847656 19.222656 29.894531 19.257812 29.953125 L 19.265625 29.96875 L 19.28125 30.003906 C 19.316406 30.105469 19.308594 30.207031 19.265625 30.300781 Z M 28.050781 17.222656 C 28.011719 17.355469 27.910156 17.433594 27.796875 17.496094 C 27.722656 17.53125 27.644531 17.542969 27.5625 17.535156 C 23.640625 17.554688 19.714844 17.535156 15.792969 17.535156 C 14.324219 17.535156 12.851562 17.539062 11.382812 17.539062 C 10.722656 17.539062 10.058594 17.5625 9.398438 17.542969 C 9.355469 17.542969 9.3125 17.53125 9.273438 17.511719 C 9.132812 17.453125 9.039062 17.347656 8.984375 17.207031 L 8.980469 17.191406 C 8.9375 17.078125 8.945312 16.96875 9 16.863281 C 9.054688 16.742188 9.140625 16.65625 9.253906 16.59375 L 9.269531 16.589844 C 9.339844 16.5625 9.414062 16.546875 9.492188 16.542969 C 10.507812 16.53125 11.523438 16.550781 12.542969 16.550781 C 14.515625 16.550781 16.492188 16.542969 18.464844 16.542969 C 19.648438 16.542969 20.832031 16.550781 22.015625 16.546875 C 23.375 16.539062 24.730469 16.546875 26.085938 16.546875 C 26.441406 16.546875 26.800781 16.546875 27.160156 16.546875 C 27.328125 16.546875 27.535156 16.527344 27.699219 16.5625 C 27.839844 16.601562 27.945312 16.683594 28.015625 16.816406 C 28.082031 16.945312 28.09375 17.082031 28.050781 17.222656 Z M 28.050781 17.222656 " fill-opacity="1" fill-rule="nonzero"/></g></svg>