<svg xmlns="http://www.w3.org/2000/svg" xmlns:xlink="http://www.w3.org/1999/xlink" width="50" zoomAndPan="magnify" viewBox="0 0 37.5 37.499999" height="50" preserveAspectRatio="xMidYMid meet" version="1.0"><defs><clipPath id="c116dbaf21"><path d="M 0 0 L 37.007812 0 L 37.007812 37.007812 L 0 37.007812 Z M 0 0 " clip-rule="nonzero"/></clipPath><clipPath id="1d29a71345"><path d="M 18.503906 0 C 8.285156 0 0 8.285156 0 18.503906 C 0 28.722656 8.285156 37.007812 18.503906 37.007812 C 28.722656 37.007812 37.007812 28.722656 37.007812 18.503906 C 37.007812 8.285156 28.722656 0 18.503906 0 Z M 18.503906 0 " clip-rule="nonzero"/></clipPath><clipPath id="de8484b1a4"><path d="M 0 0 L 37.007812 0 L 37.007812 37.007812 L 0 37.007812 Z M 0 0 " clip-rule="nonzero"/></clipPath><clipPath id="48fe51e719"><path d="M 18.503906 0 C 8.285156 0 0 8.285156 0 18.503906 C 0 28.722656 8.285156 37.007812 18.503906 37.007812 C 28.722656 37.007812 37.007812 28.722656 37.007812 18.503906 C 37.007812 8.285156 28.722656 0 18.503906 0 Z M 18.503906 0 " clip-rule="nonzero"/></clipPath><clipPath id="1e9ba462ca"><rect x="0" width="38" y="0" height="38"/></clipPath><clipPath id="fd1c9814d5"><path d="M 16 7.332031 L 21 7.332031 L 21 15 L 16 15 Z M 16 7.332031 " clip-rule="nonzero"/></clipPath><clipPath id="9a410ab79f"><path d="M 12.261719 22 L 19 22 L 19 29.535156 L 12.261719 29.535156 Z M 12.261719 22 " clip-rule="nonzero"/></clipPath><clipPath id="8a77e5c607"><path d="M 18 22 L 24.84375 22 L 24.84375 29.535156 L 18 29.535156 Z M 18 22 " clip-rule="nonzero"/></clipPath></defs><g clip-path="url(#c116dbaf21)"><g clip-path="url(#1d29a71345)"><g transform="matrix(1, 0, 0, 1, 0, 0)"><g clip-path="url(#1e9ba462ca)"><g clip-path="url(#de8484b1a4)"><g clip-path="url(#48fe51e719)"><path fill="#f2b754" d="M 0 0 L 37.007812 0 L 37.007812 37.007812 L 0 37.007812 Z M 0 0 " fill-opacity="1" fill-rule="nonzero"/></g></g></g></g></g></g><g clip-path="url(#fd1c9814d5)"><path fill="#ffffff" d="M 18.238281 14.324219 C 18.292969 14.375 18.363281 14.402344 18.4375 14.402344 C 18.503906 14.402344 18.570312 14.378906 18.621094 14.332031 C 18.691406 14.273438 20.335938 12.832031 20.378906 10.957031 C 20.421875 9.085938 18.84375 7.570312 18.777344 7.507812 C 18.667969 7.40625 18.503906 7.402344 18.390625 7.5 C 18.320312 7.558594 16.675781 9 16.636719 10.875 C 16.59375 12.746094 18.171875 14.261719 18.238281 14.324219 Z M 18.238281 14.324219 " fill-opacity="1" fill-rule="nonzero"/></g><g clip-path="url(#9a410ab79f)"><path fill="#ffffff" d="M 12.574219 22.898438 C 12.503906 22.894531 12.429688 22.917969 12.375 22.96875 C 12.320312 23.015625 12.289062 23.085938 12.285156 23.160156 C 12.285156 23.269531 12.261719 25.882812 13.789062 27.542969 C 15.671875 29.585938 17.515625 29.269531 17.917969 29.199219 C 18.042969 29.179688 18.199219 29.078125 18.203125 28.953125 C 18.207031 28.902344 18.40625 23.269531 12.574219 22.898438 Z M 12.574219 22.898438 " fill-opacity="1" fill-rule="nonzero"/></g><g clip-path="url(#8a77e5c607)"><path fill="#ffffff" d="M 24.441406 22.898438 C 24.515625 22.894531 24.585938 22.917969 24.640625 22.96875 C 24.695312 23.015625 24.726562 23.085938 24.730469 23.160156 C 24.730469 23.269531 24.753906 25.882812 23.226562 27.542969 C 21.34375 29.585938 19.5 29.269531 19.097656 29.199219 C 18.972656 29.179688 18.820312 29.078125 18.8125 28.953125 C 18.808594 28.902344 18.609375 23.269531 24.441406 22.898438 Z M 24.441406 22.898438 " fill-opacity="1" fill-rule="nonzero"/></g><path fill="#ffffff" d="M 13.394531 17.929688 C 13.324219 17.925781 13.25 17.949219 13.195312 17.996094 C 13.140625 18.042969 13.105469 18.109375 13.101562 18.183594 C 13.09375 18.285156 13.011719 20.605469 14.339844 22.109375 C 15.496094 23.421875 17.117188 23.75 17.117188 23.75 C 17.386719 23.75 17.628906 23.769531 17.921875 23.726562 C 18.046875 23.710938 18.207031 23.59375 18.21875 23.46875 C 18.222656 23.425781 18.503906 18.417969 13.394531 17.929688 Z M 13.394531 17.929688 " fill-opacity="1" fill-rule="nonzero"/><path fill="#ffffff" d="M 23.621094 17.929688 C 23.691406 17.925781 23.765625 17.949219 23.820312 17.996094 C 23.875 18.042969 23.910156 18.109375 23.914062 18.183594 C 23.921875 18.285156 24.003906 20.605469 22.675781 22.109375 C 21.519531 23.421875 19.898438 23.75 19.898438 23.75 C 19.628906 23.75 19.390625 23.769531 19.09375 23.726562 C 18.96875 23.710938 18.808594 23.59375 18.796875 23.46875 C 18.792969 23.425781 18.511719 18.417969 23.621094 17.929688 Z M 23.621094 17.929688 " fill-opacity="1" fill-rule="nonzero"/><path fill="#ffffff" d="M 17.734375 18.625 C 17.789062 18.625 17.84375 18.625 17.898438 18.621094 C 18.023438 18.621094 18.132812 18.527344 18.15625 18.40625 C 18.164062 18.363281 18.914062 13.703125 14.191406 12.714844 C 14.121094 12.703125 14.046875 12.714844 13.988281 12.757812 C 13.925781 12.796875 13.886719 12.863281 13.871094 12.933594 C 13.855469 13.03125 13.464844 15.367188 14.730469 16.871094 C 15.40625 17.675781 16.414062 18.625 17.734375 18.625 Z M 17.734375 18.625 " fill-opacity="1" fill-rule="nonzero"/><path fill="#ffffff" d="M 19.28125 18.625 C 19.226562 18.625 19.171875 18.625 19.117188 18.621094 C 18.992188 18.621094 18.882812 18.527344 18.859375 18.40625 C 18.851562 18.363281 18.105469 13.703125 22.824219 12.714844 C 22.894531 12.703125 22.96875 12.714844 23.027344 12.757812 C 23.089844 12.796875 23.128906 12.863281 23.144531 12.933594 C 23.160156 13.03125 23.550781 15.367188 22.285156 16.871094 C 21.609375 17.675781 20.601562 18.625 19.28125 18.625 Z M 19.28125 18.625 " fill-opacity="1" fill-rule="nonzero"/></svg>