<svg xmlns="http://www.w3.org/2000/svg" xmlns:xlink="http://www.w3.org/1999/xlink" width="50" zoomAndPan="magnify" viewBox="0 0 37.5 37.499999" height="50" preserveAspectRatio="xMidYMid meet" version="1.0"><defs><clipPath id="738b5a5535"><path d="M 0 0 L 37.007812 0 L 37.007812 37.007812 L 0 37.007812 Z M 0 0 " clip-rule="nonzero"/></clipPath><clipPath id="fe5c8005f8"><path d="M 18.503906 0 C 8.285156 0 0 8.285156 0 18.503906 C 0 28.722656 8.285156 37.007812 18.503906 37.007812 C 28.722656 37.007812 37.007812 28.722656 37.007812 18.503906 C 37.007812 8.285156 28.722656 0 18.503906 0 Z M 18.503906 0 " clip-rule="nonzero"/></clipPath><clipPath id="6123e6a385"><path d="M 0 0 L 37.007812 0 L 37.007812 37.007812 L 0 37.007812 Z M 0 0 " clip-rule="nonzero"/></clipPath><clipPath id="b5d46dfcc4"><path d="M 18.503906 0 C 8.285156 0 0 8.285156 0 18.503906 C 0 28.722656 8.285156 37.007812 18.503906 37.007812 C 28.722656 37.007812 37.007812 28.722656 37.007812 18.503906 C 37.007812 8.285156 28.722656 0 18.503906 0 Z M 18.503906 0 " clip-rule="nonzero"/></clipPath><clipPath id="a187002f47"><rect x="0" width="38" y="0" height="38"/></clipPath><clipPath id="19d724f64f"><path d="M 9.3125 5.898438 L 27.816406 5.898438 L 27.816406 31.0625 L 9.3125 31.0625 Z M 9.3125 5.898438 " clip-rule="nonzero"/></clipPath><clipPath id="45d8e0ab71"><path d="M 9.3125 6 L 26 6 L 26 31.0625 L 9.3125 31.0625 Z M 9.3125 6 " clip-rule="nonzero"/></clipPath></defs><g clip-path="url(#738b5a5535)"><g clip-path="url(#fe5c8005f8)"><g><g clip-path="url(#a187002f47)"><g clip-path="url(#6123e6a385)"><g clip-path="url(#b5d46dfcc4)"><path fill="#f19858" d="M 0 0 L 37.007812 0 L 37.007812 37.007812 L 0 37.007812 Z M 0 0 " fill-opacity="1" fill-rule="nonzero"/></g></g></g></g></g></g><g clip-path="url(#19d724f64f)"><path fill="#ffffff" d="M 27.6875 20.605469 C 27.6875 27.5625 23.574219 31.097656 18.5 31.097656 C 13.425781 31.097656 9.316406 27.5625 9.316406 20.605469 C 9.316406 13.644531 13.429688 5.898438 18.5 5.898438 C 23.574219 5.898438 27.6875 13.644531 27.6875 20.605469 Z M 27.6875 20.605469 " fill-opacity="1" fill-rule="nonzero"/></g><g clip-path="url(#45d8e0ab71)"><path fill="#f2e3d4" d="M 21.820312 28.558594 C 16.746094 28.558594 12.636719 25.023438 12.636719 18.0625 C 12.636719 13.753906 14.214844 9.144531 16.621094 6.257812 C 12.449219 7.855469 9.3125 14.53125 9.3125 20.605469 C 9.3125 27.5625 13.425781 31.097656 18.5 31.097656 C 21.320312 31.097656 23.839844 30.003906 25.527344 27.839844 C 24.394531 28.316406 23.140625 28.558594 21.820312 28.558594 Z M 21.820312 28.558594 " fill-opacity="1" fill-rule="nonzero"/></g><path fill="#f2e3d4" d="M 20.996094 11.128906 C 20.535156 11.417969 19.871094 11.261719 19.535156 10.773438 C 19.058594 10 18.585938 9.226562 18.113281 8.449219 C 17.835938 7.929688 17.996094 7.265625 18.46875 6.988281 C 18.9375 6.710938 19.875 6.613281 20.410156 6.976562 C 21.230469 7.589844 21.722656 8.398438 21.890625 9.40625 C 21.972656 10.046875 21.457031 10.839844 20.996094 11.128906 Z M 20.996094 11.128906 " fill-opacity="1" fill-rule="nonzero"/></svg>