<svg xmlns="http://www.w3.org/2000/svg" xmlns:xlink="http://www.w3.org/1999/xlink" width="50" zoomAndPan="magnify" viewBox="0 0 37.5 37.499999" height="50" preserveAspectRatio="xMidYMid meet" version="1.0"><defs><clipPath id="7c09dce13f"><path d="M 0 0 L 37.007812 0 L 37.007812 37.007812 L 0 37.007812 Z M 0 0 " clip-rule="nonzero"/></clipPath><clipPath id="6fc79ef765"><path d="M 18.503906 0 C 8.285156 0 0 8.285156 0 18.503906 C 0 28.722656 8.285156 37.007812 18.503906 37.007812 C 28.722656 37.007812 37.007812 28.722656 37.007812 18.503906 C 37.007812 8.285156 28.722656 0 18.503906 0 Z M 18.503906 0 " clip-rule="nonzero"/></clipPath><clipPath id="df89efb918"><path d="M 0 0 L 37.007812 0 L 37.007812 37.007812 L 0 37.007812 Z M 0 0 " clip-rule="nonzero"/></clipPath><clipPath id="bde017c334"><path d="M 18.503906 0 C 8.285156 0 0 8.285156 0 18.503906 C 0 28.722656 8.285156 37.007812 18.503906 37.007812 C 28.722656 37.007812 37.007812 28.722656 37.007812 18.503906 C 37.007812 8.285156 28.722656 0 18.503906 0 Z M 18.503906 0 " clip-rule="nonzero"/></clipPath><clipPath id="4fc5b3ba7f"><rect x="0" width="38" y="0" height="38"/></clipPath><clipPath id="5c02a7e517"><path d="M 14 2.492188 L 23 2.492188 L 23 6 L 14 6 Z M 14 2.492188 " clip-rule="nonzero"/></clipPath><clipPath id="9159f477d4"><path d="M 11.800781 5 L 25.125 5 L 25.125 33.578125 L 11.800781 33.578125 Z M 11.800781 5 " clip-rule="nonzero"/></clipPath></defs><g clip-path="url(#7c09dce13f)"><g clip-path="url(#6fc79ef765)"><g transform="matrix(1, 0, 0, 1, 0, 0)"><g clip-path="url(#4fc5b3ba7f)"><g clip-path="url(#df89efb918)"><g clip-path="url(#bde017c334)"><path fill="#0fb3ea" d="M 0 0 L 37.007812 0 L 37.007812 37.007812 L 0 37.007812 Z M 0 0 " fill-opacity="1" fill-rule="nonzero"/></g></g></g></g></g></g><g clip-path="url(#5c02a7e517)"><path fill="#ffffff" d="M 14.988281 2.535156 C 14.804688 2.609375 14.636719 2.855469 14.605469 3.117188 C 14.585938 3.253906 14.585938 3.75 14.605469 4.21875 L 14.636719 5.0625 L 22.402344 5.0625 L 22.402344 4.019531 C 22.402344 2.851562 22.382812 2.753906 22.097656 2.585938 C 21.945312 2.492188 21.828125 2.488281 18.515625 2.492188 C 16.628906 2.492188 15.046875 2.511719 14.988281 2.535156 Z M 14.988281 2.535156 " fill-opacity="1" fill-rule="nonzero"/></g><g clip-path="url(#9159f477d4)"><path fill="#ffffff" d="M 14.707031 5.914062 C 14.503906 6.019531 14.4375 6.125 14.433594 6.355469 C 14.433594 6.613281 14.59375 6.796875 14.855469 6.839844 L 15.042969 6.871094 L 15.007812 7.652344 C 14.972656 8.566406 14.851562 9.246094 14.585938 10.0625 C 14.339844 10.800781 14.074219 11.359375 13.46875 12.414062 C 12.414062 14.238281 12.007812 15.378906 11.859375 16.941406 C 11.828125 17.28125 11.808594 19.867188 11.808594 24.035156 C 11.816406 29.492188 11.824219 30.65625 11.882812 30.984375 C 12.082031 32.101562 12.933594 32.988281 14.019531 33.21875 C 14.527344 33.324219 22.503906 33.324219 23.007812 33.21875 C 23.980469 33.011719 24.722656 32.328125 25.0625 31.328125 L 25.195312 30.933594 L 25.195312 24.011719 C 25.195312 16.359375 25.207031 16.695312 24.878906 15.402344 C 24.628906 14.386719 24.363281 13.804688 23.476562 12.253906 C 22.460938 10.484375 22.070312 9.242188 21.980469 7.46875 L 21.949219 6.859375 L 22.128906 6.859375 C 22.503906 6.859375 22.730469 6.398438 22.519531 6.085938 C 22.339844 5.835938 22.386719 5.839844 18.480469 5.839844 C 14.574219 5.839844 14.828125 5.847656 14.707031 5.914062 Z M 15.792969 10.238281 C 15.679688 11.402344 15.402344 12.382812 14.808594 13.769531 C 14.03125 15.582031 13.753906 16.863281 13.753906 18.695312 C 13.753906 20.527344 13.71875 20.371094 13.671875 21.585938 C 13.621094 22.933594 13.589844 25.019531 13.589844 26.949219 C 13.582031 29.832031 13.59375 30.136719 13.671875 30.425781 C 13.914062 31.308594 14.425781 31.824219 15.289062 32.046875 C 15.679688 32.148438 16.527344 32.222656 17.421875 32.226562 C 18.058594 32.230469 18.910156 32.289062 18.636719 32.3125 C 18.582031 32.3125 18.191406 32.351562 17.761719 32.398438 C 16.65625 32.507812 15.382812 32.507812 14.945312 32.398438 C 13.980469 32.148438 13.371094 31.546875 13.097656 30.59375 C 13.023438 30.347656 13.011719 29.917969 12.976562 27.605469 C 12.953125 26.125 12.910156 23.992188 12.875 22.867188 C 12.792969 20.082031 12.785156 17.839844 12.871094 17.257812 C 13.078125 15.808594 13.289062 15.183594 14.1875 13.394531 C 15.242188 11.296875 15.585938 10.257812 15.753906 8.628906 L 15.820312 8.050781 L 15.832031 8.875 C 15.84375 9.328125 15.824219 9.941406 15.792969 10.238281 Z M 15.792969 10.238281 " fill-opacity="1" fill-rule="nonzero"/></g></svg>