<svg xmlns="http://www.w3.org/2000/svg" xmlns:xlink="http://www.w3.org/1999/xlink" width="50" zoomAndPan="magnify" viewBox="0 0 37.5 37.499999" height="50" preserveAspectRatio="xMidYMid meet" version="1.0"><defs><clipPath id="a53507a605"><path d="M 0 0 L 37.007812 0 L 37.007812 37.007812 L 0 37.007812 Z M 0 0 " clip-rule="nonzero"/></clipPath><clipPath id="1758c132e7"><path d="M 18.503906 0 C 8.285156 0 0 8.285156 0 18.503906 C 0 28.722656 8.285156 37.007812 18.503906 37.007812 C 28.722656 37.007812 37.007812 28.722656 37.007812 18.503906 C 37.007812 8.285156 28.722656 0 18.503906 0 Z M 18.503906 0 " clip-rule="nonzero"/></clipPath><clipPath id="ccb9ce95c3"><path d="M 0 0 L 37.007812 0 L 37.007812 37.007812 L 0 37.007812 Z M 0 0 " clip-rule="nonzero"/></clipPath><clipPath id="ffb4d20d28"><path d="M 18.503906 0 C 8.285156 0 0 8.285156 0 18.503906 C 0 28.722656 8.285156 37.007812 18.503906 37.007812 C 28.722656 37.007812 37.007812 28.722656 37.007812 18.503906 C 37.007812 8.285156 28.722656 0 18.503906 0 Z M 18.503906 0 " clip-rule="nonzero"/></clipPath><clipPath id="98e8e90d8f"><rect x="0" width="38" y="0" height="38"/></clipPath><clipPath id="37880c0cc7"><path d="M 7.789062 6.378906 L 29.25 6.378906 L 29.25 30 L 7.789062 30 Z M 7.789062 6.378906 " clip-rule="nonzero"/></clipPath></defs><g clip-path="url(#a53507a605)"><g clip-path="url(#1758c132e7)"><g><g clip-path="url(#98e8e90d8f)"><g clip-path="url(#ccb9ce95c3)"><g clip-path="url(#ffb4d20d28)"><path fill="#aecc4f" d="M 0 0 L 37.007812 0 L 37.007812 37.007812 L 0 37.007812 Z M 0 0 " fill-opacity="1" fill-rule="nonzero"/></g></g></g></g></g></g><g clip-path="url(#37880c0cc7)"><path fill="#ffffff" d="M 21.8125 13.136719 C 23.664062 14.082031 25.402344 18.457031 23.617188 20.160156 C 23.34375 20.417969 23.183594 20.6875 23.09375 21.03125 C 23.007812 21.367188 23.019531 21.664062 23.140625 21.972656 C 23.429688 22.71875 23.15625 23.5625 22.578125 24.113281 C 22.304688 24.371094 22.144531 24.644531 22.054688 24.984375 C 21.964844 25.320312 21.980469 25.621094 22.101562 25.925781 C 22.230469 26.261719 22.257812 26.648438 22.152344 27.042969 C 21.851562 28.195312 18.632812 30.609375 17.628906 29.695312 C 17.144531 29.253906 17.613281 28.503906 17.753906 27.941406 C 17.988281 26.96875 17.847656 26.195312 18.636719 25.445312 C 18.910156 25.183594 19.070312 24.914062 19.160156 24.570312 C 19.246094 24.238281 19.234375 23.9375 19.113281 23.632812 C 18.824219 22.882812 19.097656 22.042969 19.675781 21.488281 C 19.949219 21.230469 20.109375 20.960938 20.199219 20.617188 C 20.246094 20.441406 20.261719 20.277344 20.253906 20.113281 C 20.25 20.089844 20.265625 20.070312 20.285156 20.0625 C 20.863281 19.878906 21.378906 19.542969 21.78125 19.085938 C 22.839844 17.882812 22.644531 16.148438 22.277344 14.710938 C 22.199219 14.40625 21.878906 13.589844 21.742188 13.195312 C 21.738281 13.175781 21.742188 13.15625 21.757812 13.140625 C 21.773438 13.128906 21.792969 13.125 21.8125 13.136719 Z M 29.175781 6.992188 C 27.445312 6.390625 25.46875 6.535156 23.769531 7.550781 C 22.328125 8.414062 21.34375 9.757812 20.90625 11.257812 C 20.898438 11.277344 20.90625 11.300781 20.925781 11.3125 C 20.945312 11.324219 20.96875 11.320312 20.984375 11.304688 C 22.792969 9.550781 24.925781 8.328125 27.429688 7.890625 C 27.628906 7.855469 27.816406 7.988281 27.851562 8.183594 C 27.886719 8.382812 27.753906 8.570312 27.554688 8.605469 C 26.773438 8.742188 26.027344 8.960938 25.316406 9.253906 C 25.296875 9.261719 25.285156 9.28125 25.289062 9.300781 C 25.289062 9.324219 25.304688 9.339844 25.324219 9.34375 C 25.609375 9.421875 25.882812 9.523438 26.152344 9.65625 C 26.335938 9.742188 26.410156 9.957031 26.324219 10.140625 C 26.234375 10.320312 26.019531 10.394531 25.839844 10.308594 C 25.539062 10.164062 25.230469 10.058594 24.917969 9.992188 C 24.617188 9.929688 24.3125 9.902344 23.996094 9.914062 C 23.988281 9.914062 23.980469 9.914062 23.972656 9.917969 C 22.960938 10.511719 22.023438 11.261719 21.160156 12.15625 C 21.148438 12.167969 21.144531 12.183594 21.148438 12.203125 C 21.152344 12.21875 21.164062 12.230469 21.183594 12.234375 C 24.863281 13.234375 28.605469 10.816406 29.210938 7.046875 C 29.214844 7.023438 29.199219 7 29.175781 6.992188 Z M 15.550781 8.960938 C 16.609375 8.601562 17.8125 8.6875 18.847656 9.308594 C 19.671875 9.800781 20.25 10.550781 20.542969 11.390625 C 20.550781 11.410156 20.546875 11.433594 20.527344 11.445312 C 20.511719 11.460938 20.488281 11.460938 20.46875 11.445312 C 19.632812 10.832031 18.730469 10.296875 17.765625 9.953125 C 17.574219 9.886719 17.367188 9.988281 17.300781 10.175781 C 17.234375 10.363281 17.332031 10.570312 17.523438 10.636719 C 18.480469 10.976562 19.378906 11.53125 20.203125 12.152344 C 20.21875 12.164062 20.226562 12.183594 20.222656 12.203125 C 20.21875 12.222656 20.203125 12.234375 20.183594 12.238281 C 18 12.683594 15.878906 11.21875 15.519531 9.015625 C 15.515625 8.992188 15.527344 8.96875 15.550781 8.960938 Z M 17.320312 15.164062 C 16.972656 15.558594 16.765625 16.027344 16.695312 16.511719 C 16.632812 16.953125 16.46875 17.3125 16.171875 17.644531 C 15.875 17.988281 15.542969 18.199219 15.105469 18.320312 C 14.113281 18.597656 13.375 19.4375 13.226562 20.457031 C 13.164062 20.898438 13 21.257812 12.703125 21.59375 C 12.40625 21.933594 12.074219 22.144531 11.636719 22.269531 C 10.367188 22.621094 10.023438 23.648438 9.210938 24.605469 C 8.726562 25.175781 7.785156 25.738281 8.019531 26.585938 C 8.5 28.328125 13.289062 27.648438 14.296875 26.5 C 14.644531 26.105469 14.851562 25.636719 14.921875 25.152344 C 14.984375 24.714844 15.148438 24.351562 15.441406 24.019531 C 15.742188 23.675781 16.074219 23.464844 16.511719 23.34375 C 17.503906 23.066406 18.242188 22.226562 18.390625 21.207031 C 18.453125 20.765625 18.617188 20.40625 18.910156 20.070312 C 19.210938 19.730469 19.539062 19.519531 19.980469 19.398438 C 20.449219 19.265625 20.890625 19 21.234375 18.605469 C 22.660156 16.988281 21.203125 13.882812 20.738281 12.167969 C 20.734375 12.152344 20.722656 12.140625 20.707031 12.136719 C 20.691406 12.132812 20.671875 12.136719 20.660156 12.148438 C 19.804688 12.929688 18.03125 14.351562 17.320312 15.164062 Z M 20.074219 17.585938 C 20.535156 17.058594 20.933594 15.824219 20.328125 15.277344 C 19.78125 14.777344 18.90625 15.269531 19.046875 16 C 19.128906 16.414062 18.792969 16.796875 18.367188 16.773438 C 17.625 16.726562 17.25 17.652344 17.816406 18.136719 C 18.4375 18.667969 19.609375 18.113281 20.074219 17.585938 Z M 13.136719 25.480469 C 12.671875 26.007812 11.5 26.558594 10.878906 26.03125 C 10.3125 25.546875 10.6875 24.617188 11.429688 24.664062 C 11.855469 24.691406 12.191406 24.308594 12.109375 23.890625 C 11.96875 23.164062 12.84375 22.671875 13.394531 23.167969 C 14 23.714844 13.601562 24.953125 13.136719 25.480469 Z M 16.605469 21.53125 C 17.066406 21.007812 17.46875 19.769531 16.859375 19.222656 C 16.3125 18.726562 15.4375 19.21875 15.578125 19.945312 C 15.660156 20.363281 15.324219 20.746094 14.898438 20.71875 C 14.15625 20.671875 13.78125 21.601562 14.347656 22.082031 C 14.96875 22.613281 16.140625 22.058594 16.605469 21.53125 Z M 16.605469 21.53125 " fill-opacity="1" fill-rule="evenodd"/></g></svg>