<svg xmlns="http://www.w3.org/2000/svg" xmlns:xlink="http://www.w3.org/1999/xlink" width="50" zoomAndPan="magnify" viewBox="0 0 37.5 37.499999" height="50" preserveAspectRatio="xMidYMid meet" version="1.0"><defs><clipPath id="8f6c147c34"><path d="M 0 0 L 37.007812 0 L 37.007812 37.007812 L 0 37.007812 Z M 0 0 " clip-rule="nonzero"/></clipPath><clipPath id="9a778a1c77"><path d="M 18.503906 0 C 8.285156 0 0 8.285156 0 18.503906 C 0 28.722656 8.285156 37.007812 18.503906 37.007812 C 28.722656 37.007812 37.007812 28.722656 37.007812 18.503906 C 37.007812 8.285156 28.722656 0 18.503906 0 Z M 18.503906 0 " clip-rule="nonzero"/></clipPath><clipPath id="3e2f355e52"><path d="M 0 0 L 37.007812 0 L 37.007812 37.007812 L 0 37.007812 Z M 0 0 " clip-rule="nonzero"/></clipPath><clipPath id="bab02ab89f"><path d="M 18.503906 0 C 8.285156 0 0 8.285156 0 18.503906 C 0 28.722656 8.285156 37.007812 18.503906 37.007812 C 28.722656 37.007812 37.007812 28.722656 37.007812 18.503906 C 37.007812 8.285156 28.722656 0 18.503906 0 Z M 18.503906 0 " clip-rule="nonzero"/></clipPath><clipPath id="58b1d17f6f"><rect x="0" width="38" y="0" height="38"/></clipPath><clipPath id="332a26b357"><path d="M 5.15625 12 L 7 12 L 7 14 L 5.15625 14 Z M 5.15625 12 " clip-rule="nonzero"/></clipPath><clipPath id="b65d8e0bae"><path d="M 5.15625 24 L 7 24 L 7 26 L 5.15625 26 Z M 5.15625 24 " clip-rule="nonzero"/></clipPath><clipPath id="7c9df0fd71"><path d="M 16 29 L 17 29 L 17 30.953125 L 16 30.953125 Z M 16 29 " clip-rule="nonzero"/></clipPath><clipPath id="79f777701b"><path d="M 28 29 L 29 29 L 29 30.953125 L 28 30.953125 Z M 28 29 " clip-rule="nonzero"/></clipPath><clipPath id="6051427007"><path d="M 16 5.785156 L 17 5.785156 L 17 8 L 16 8 Z M 16 5.785156 " clip-rule="nonzero"/></clipPath><clipPath id="1f0c831891"><path d="M 28 5.785156 L 29 5.785156 L 29 8 L 28 8 Z M 28 5.785156 " clip-rule="nonzero"/></clipPath><clipPath id="a63f313c0a"><path d="M 9 10 L 31.800781 10 L 31.800781 27 L 9 27 Z M 9 10 " clip-rule="nonzero"/></clipPath></defs><g clip-path="url(#8f6c147c34)"><g clip-path="url(#9a778a1c77)"><g transform="matrix(1, 0, 0, 1, 0, 0)"><g clip-path="url(#58b1d17f6f)"><g clip-path="url(#3e2f355e52)"><g clip-path="url(#bab02ab89f)"><path fill="#e560a1" d="M 0 0 L 37.007812 0 L 37.007812 37.007812 L 0 37.007812 Z M 0 0 " fill-opacity="1" fill-rule="nonzero"/></g></g></g></g></g></g><path fill="#ffffff" d="M 16.316406 13.609375 L 12.1875 15.984375 C 12.089844 16.042969 12.054688 16.171875 12.113281 16.273438 C 12.152344 16.34375 12.222656 16.378906 12.292969 16.378906 C 12.332031 16.378906 12.367188 16.371094 12.398438 16.351562 L 16.527344 13.976562 C 16.628906 13.917969 16.664062 13.789062 16.605469 13.6875 C 16.546875 13.585938 16.417969 13.550781 16.316406 13.609375 Z M 16.316406 13.609375 " fill-opacity="1" fill-rule="nonzero"/><path fill="#ffffff" d="M 8.804688 13.933594 L 7.757812 13.332031 C 7.660156 13.273438 7.527344 13.308594 7.472656 13.410156 C 7.414062 13.511719 7.445312 13.640625 7.546875 13.699219 L 8.59375 14.300781 C 8.625 14.320312 8.660156 14.328125 8.699219 14.328125 C 8.769531 14.328125 8.84375 14.289062 8.882812 14.222656 C 8.9375 14.121094 8.90625 13.992188 8.804688 13.933594 Z M 8.804688 13.933594 " fill-opacity="1" fill-rule="nonzero"/><g clip-path="url(#332a26b357)"><path fill="#ffffff" d="M 6.597656 12.664062 L 5.492188 12.027344 C 5.394531 11.96875 5.265625 12.003906 5.207031 12.105469 C 5.148438 12.207031 5.183594 12.335938 5.28125 12.394531 L 6.386719 13.03125 C 6.417969 13.050781 6.457031 13.058594 6.492188 13.058594 C 6.566406 13.058594 6.636719 13.019531 6.675781 12.953125 C 6.734375 12.851562 6.699219 12.722656 6.597656 12.664062 Z M 6.597656 12.664062 " fill-opacity="1" fill-rule="nonzero"/></g><path fill="#ffffff" d="M 8.59375 22.785156 L 7.546875 23.390625 C 7.445312 23.445312 7.414062 23.578125 7.472656 23.675781 C 7.511719 23.746094 7.582031 23.785156 7.652344 23.785156 C 7.691406 23.785156 7.726562 23.773438 7.757812 23.753906 L 8.804688 23.152344 C 8.90625 23.09375 8.9375 22.964844 8.882812 22.863281 C 8.824219 22.761719 8.691406 22.726562 8.59375 22.785156 Z M 8.59375 22.785156 " fill-opacity="1" fill-rule="nonzero"/><g clip-path="url(#b65d8e0bae)"><path fill="#ffffff" d="M 6.386719 24.058594 L 5.28125 24.691406 C 5.183594 24.75 5.148438 24.878906 5.207031 24.980469 C 5.246094 25.050781 5.316406 25.085938 5.386719 25.085938 C 5.425781 25.085938 5.460938 25.078125 5.492188 25.058594 L 6.597656 24.421875 C 6.699219 24.363281 6.734375 24.234375 6.675781 24.132812 C 6.617188 24.03125 6.488281 24 6.386719 24.058594 Z M 6.386719 24.058594 " fill-opacity="1" fill-rule="nonzero"/></g><path fill="#ffffff" d="M 16.421875 27.433594 C 16.304688 27.433594 16.210938 27.53125 16.210938 27.644531 L 16.210938 28.753906 C 16.210938 28.871094 16.304688 28.964844 16.421875 28.964844 C 16.539062 28.964844 16.632812 28.871094 16.632812 28.753906 L 16.632812 27.644531 C 16.632812 27.53125 16.539062 27.433594 16.421875 27.433594 Z M 16.421875 27.433594 " fill-opacity="1" fill-rule="nonzero"/><g clip-path="url(#7c9df0fd71)"><path fill="#ffffff" d="M 16.421875 29.652344 C 16.304688 29.652344 16.210938 29.746094 16.210938 29.863281 L 16.210938 30.96875 C 16.210938 31.085938 16.304688 31.183594 16.421875 31.183594 C 16.539062 31.183594 16.632812 31.085938 16.632812 30.96875 L 16.632812 29.863281 C 16.632812 29.746094 16.539062 29.652344 16.421875 29.652344 Z M 16.421875 29.652344 " fill-opacity="1" fill-rule="nonzero"/></g><path fill="#ffffff" d="M 28.558594 27.433594 C 28.441406 27.433594 28.347656 27.53125 28.347656 27.644531 L 28.347656 28.753906 C 28.347656 28.871094 28.441406 28.964844 28.558594 28.964844 C 28.675781 28.964844 28.769531 28.871094 28.769531 28.753906 L 28.769531 27.644531 C 28.769531 27.53125 28.675781 27.433594 28.558594 27.433594 Z M 28.558594 27.433594 " fill-opacity="1" fill-rule="nonzero"/><g clip-path="url(#79f777701b)"><path fill="#ffffff" d="M 28.558594 29.652344 C 28.441406 29.652344 28.347656 29.746094 28.347656 29.863281 L 28.347656 30.96875 C 28.347656 31.085938 28.441406 31.183594 28.558594 31.183594 C 28.675781 31.183594 28.769531 31.085938 28.769531 30.96875 L 28.769531 29.863281 C 28.769531 29.746094 28.675781 29.652344 28.558594 29.652344 Z M 28.558594 29.652344 " fill-opacity="1" fill-rule="nonzero"/></g><g clip-path="url(#6051427007)"><path fill="#ffffff" d="M 16.421875 7.351562 C 16.539062 7.351562 16.632812 7.257812 16.632812 7.140625 L 16.632812 6.035156 C 16.632812 5.917969 16.539062 5.824219 16.421875 5.824219 C 16.304688 5.824219 16.210938 5.917969 16.210938 6.035156 L 16.210938 7.140625 C 16.210938 7.257812 16.304688 7.351562 16.421875 7.351562 Z M 16.421875 7.351562 " fill-opacity="1" fill-rule="nonzero"/></g><path fill="#ffffff" d="M 16.421875 9.570312 C 16.539062 9.570312 16.632812 9.476562 16.632812 9.359375 L 16.632812 8.25 C 16.632812 8.132812 16.539062 8.039062 16.421875 8.039062 C 16.304688 8.039062 16.210938 8.132812 16.210938 8.25 L 16.210938 9.359375 C 16.210938 9.476562 16.304688 9.570312 16.421875 9.570312 Z M 16.421875 9.570312 " fill-opacity="1" fill-rule="nonzero"/><g clip-path="url(#1f0c831891)"><path fill="#ffffff" d="M 28.558594 7.351562 C 28.675781 7.351562 28.769531 7.257812 28.769531 7.140625 L 28.769531 6.035156 C 28.769531 5.917969 28.675781 5.824219 28.558594 5.824219 C 28.441406 5.824219 28.347656 5.917969 28.347656 6.035156 L 28.347656 7.140625 C 28.347656 7.257812 28.441406 7.351562 28.558594 7.351562 Z M 28.558594 7.351562 " fill-opacity="1" fill-rule="nonzero"/></g><path fill="#ffffff" d="M 28.558594 9.570312 C 28.675781 9.570312 28.769531 9.476562 28.769531 9.359375 L 28.769531 8.25 C 28.769531 8.132812 28.675781 8.039062 28.558594 8.039062 C 28.441406 8.039062 28.347656 8.132812 28.347656 8.25 L 28.347656 9.359375 C 28.347656 9.476562 28.441406 9.570312 28.558594 9.570312 Z M 28.558594 9.570312 " fill-opacity="1" fill-rule="nonzero"/><g clip-path="url(#a63f313c0a)"><path fill="#ffffff" d="M 31.488281 23.5 L 29.578125 24.597656 C 29.328125 24.292969 28.957031 24.109375 28.558594 24.109375 C 28.164062 24.109375 27.789062 24.292969 27.539062 24.597656 L 23.683594 22.378906 C 23.761719 22.207031 23.804688 22.019531 23.804688 21.828125 C 23.804688 21.171875 23.328125 20.628906 22.703125 20.527344 L 22.703125 16.480469 C 23.328125 16.378906 23.804688 15.832031 23.804688 15.179688 C 23.804688 14.984375 23.761719 14.800781 23.683594 14.628906 L 27.539062 12.40625 C 27.78125 12.707031 28.148438 12.894531 28.558594 12.894531 C 28.96875 12.894531 29.335938 12.707031 29.578125 12.40625 L 31.488281 13.507812 C 31.519531 13.527344 31.558594 13.535156 31.59375 13.535156 C 31.667969 13.535156 31.738281 13.496094 31.777344 13.429688 C 31.835938 13.328125 31.800781 13.199219 31.699219 13.140625 L 29.789062 12.039062 C 29.84375 11.894531 29.875 11.738281 29.875 11.578125 C 29.875 10.847656 29.285156 10.253906 28.558594 10.253906 C 27.832031 10.253906 27.246094 10.847656 27.246094 11.578125 C 27.246094 11.738281 27.277344 11.894531 27.328125 12.039062 L 23.449219 14.277344 C 23.203125 14.011719 22.855469 13.859375 22.492188 13.859375 C 22.125 13.859375 21.78125 14.011719 21.535156 14.277344 L 17.648438 12.039062 C 17.707031 11.890625 17.738281 11.734375 17.738281 11.578125 C 17.738281 10.847656 17.148438 10.257812 16.421875 10.257812 C 15.699219 10.257812 15.109375 10.847656 15.109375 11.578125 C 15.109375 11.734375 15.136719 11.890625 15.195312 12.039062 L 11.3125 14.277344 C 11.066406 14.011719 10.71875 13.859375 10.351562 13.859375 C 9.628906 13.859375 9.039062 14.449219 9.039062 15.175781 C 9.039062 15.832031 9.515625 16.378906 10.140625 16.480469 L 10.140625 20.527344 C 9.515625 20.628906 9.039062 21.171875 9.039062 21.828125 C 9.039062 22.554688 9.628906 23.148438 10.351562 23.148438 C 10.71875 23.148438 11.0625 22.992188 11.308594 22.730469 L 15.191406 24.964844 C 15.136719 25.113281 15.109375 25.269531 15.109375 25.429688 C 15.109375 26.15625 15.695312 26.75 16.421875 26.75 C 17.148438 26.75 17.738281 26.15625 17.738281 25.429688 C 17.738281 25.269531 17.707031 25.113281 17.652344 24.964844 L 21.535156 22.730469 C 21.78125 22.992188 22.128906 23.148438 22.492188 23.148438 C 22.855469 23.148438 23.199219 22.992188 23.445312 22.730469 L 27.328125 24.964844 C 27.273438 25.113281 27.242188 25.269531 27.242188 25.429688 C 27.242188 26.15625 27.832031 26.746094 28.558594 26.746094 C 29.28125 26.746094 29.871094 26.15625 29.871094 25.429688 C 29.871094 25.269531 29.84375 25.113281 29.785156 24.964844 L 31.699219 23.863281 C 31.800781 23.804688 31.835938 23.675781 31.777344 23.574219 C 31.71875 23.476562 31.589844 23.441406 31.488281 23.5 Z M 17.441406 24.597656 C 17.191406 24.292969 16.816406 24.109375 16.421875 24.109375 C 16.027344 24.109375 15.652344 24.292969 15.402344 24.597656 L 11.546875 22.378906 C 11.625 22.207031 11.667969 22.019531 11.667969 21.828125 C 11.667969 21.171875 11.191406 20.628906 10.5625 20.527344 L 10.5625 16.480469 C 11.191406 16.378906 11.667969 15.832031 11.667969 15.179688 C 11.667969 14.984375 11.625 14.796875 11.546875 14.628906 L 15.40625 12.40625 C 15.652344 12.710938 16.023438 12.894531 16.421875 12.894531 C 16.820312 12.894531 17.191406 12.710938 17.441406 12.40625 L 21.296875 14.628906 C 21.21875 14.796875 21.175781 14.984375 21.175781 15.175781 C 21.175781 15.832031 21.65625 16.378906 22.28125 16.480469 L 22.28125 20.527344 C 21.65625 20.628906 21.175781 21.171875 21.175781 21.828125 C 21.175781 22.019531 21.21875 22.207031 21.296875 22.378906 Z M 17.441406 24.597656 " fill-opacity="1" fill-rule="nonzero"/></g><path fill="#ffffff" d="M 24.527344 20.804688 C 24.425781 20.75 24.296875 20.78125 24.238281 20.882812 C 24.179688 20.984375 24.214844 21.113281 24.316406 21.171875 L 28.179688 23.394531 C 28.210938 23.414062 28.246094 23.425781 28.285156 23.425781 C 28.355469 23.425781 28.429688 23.386719 28.46875 23.316406 C 28.523438 23.21875 28.492188 23.085938 28.390625 23.03125 Z M 24.527344 20.804688 " fill-opacity="1" fill-rule="nonzero"/></svg>