<?xml version="1.0" encoding="UTF-8"?>
<svg id="Capa_1" data-name="Capa 1"
  xmlns="http://www.w3.org/2000/svg" viewBox="0 0 840.6 579.69">
  <defs>
    <style>
      .cls-1 {
        fill: ivory;
      }
    </style>
  </defs>
  <path class="cls-1" d="M82.73,427.27h30.74c3.42,0,4.95-1.71,4.61-5.12l-2.05-24.08c-.11-1.14.03-2.11.43-2.9.4-.79,1.17-1.2,2.31-1.2,1.59,0,2.73.37,3.42,1.11.68.74,1.25,1.62,1.71,2.65l11.44,24.94c1.37,3.07,3.76,4.61,7.17,4.61h4.61c3.42,0,5.81-1.54,7.17-4.61l11.44-24.94c.45-1.02,1.05-1.9,1.79-2.65.74-.74,1.85-1.11,3.33-1.11,1.25,0,2.05.4,2.39,1.2.34.8.45,1.77.34,2.9l-2.05,24.08c-.34,3.42,1.2,5.12,4.61,5.12h30.74c3.42,0,5.12-1.71,5.12-5.12v-109.31c0-3.42-1.71-5.12-5.12-5.12h-32.96c-3.19,0-5.75,1.48-7.69,4.44l-16.23,25.28c-.57.91-1.23,1.68-1.96,2.3-.74.63-1.79.94-3.16.94s-2.42-.31-3.16-.94c-.74-.62-1.39-1.39-1.96-2.3l-16.4-25.28c-1.94-2.96-4.5-4.44-7.69-4.44h-32.96c-3.42,0-5.12,1.71-5.12,5.12v109.31c0,3.42,1.71,5.12,5.12,5.12Z"/>
  <path class="cls-1" d="M305.95,307.72h-81.98c-3.42,0-5.12,1.71-5.12,5.12v109.31c0,3.42,1.71,5.12,5.12,5.12h81.98c3.42,0,5.12-1.71,5.12-5.12v-25.62c0-3.42-1.71-5.12-5.12-5.12h-35.01c-2.85,0-4.27-1.42-4.27-4.27s1.42-4.27,4.27-4.27h29.89c3.42,0,5.12-1.71,5.12-5.12v-20.5c0-3.42-1.71-5.12-5.12-5.12h-29.89c-2.85,0-4.27-1.42-4.27-4.27s1.42-4.27,4.27-4.27h35.01c3.42,0,5.12-1.71,5.12-5.12v-25.62c0-3.42-1.71-5.12-5.12-5.12Z"/>
  <path class="cls-1" d="M426.88,379.11c-.34-2.39-1.37-3.59-3.07-3.59-.68,0-1.48.17-2.39.51-2.28.91-4.93,1.71-7.94,2.39-3.02.68-6.23,1.02-9.65,1.02-4.33,0-8.09-1.02-11.27-3.07-1.48-1.02-2.05-1.99-1.71-2.9.34-.91,1.25-1.42,2.73-1.54,5.69-.91,10.67-2.05,14.94-3.42,4.27-1.37,7.83-3.24,10.67-5.64,2.84-2.39,4.98-5.35,6.41-8.88,1.42-3.53,2.14-7.86,2.14-12.98,0-5.81-1.25-10.79-3.76-14.94-2.51-4.15-6.09-7.6-10.76-10.33-4.67-2.73-10.31-4.75-16.91-6.06-6.6-1.31-14.06-1.96-22.37-1.96h-51.41c-3.42,0-5.12,1.71-5.12,5.12v109.31c0,3.42,1.71,5.12,5.12,5.12h37.58c3.53,0,5.18-1.71,4.95-5.12l-1.71-36.04c0-2.05.97-3.07,2.9-3.07,2.16,0,3.24,1.02,3.24,3.07.11,6.83.77,12.89,1.96,18.19,1.2,5.29,3.16,9.79,5.89,13.49,2.73,3.7,6.32,6.49,10.76,8.37,4.44,1.88,10.02,2.82,16.74,2.82,3.76,0,7.57-.34,11.44-1.02,3.87-.68,7.97-1.82,12.3-3.42,3.19-1.14,4.44-3.7,3.76-7.69l-5.47-37.74ZM377.86,357.59c-.8.91-2.11,1.37-3.93,1.37h-4.44c-2.85,0-4.27-1.42-4.27-4.27s1.42-4.27,4.27-4.27h4.44c1.82,0,3.13.43,3.93,1.28.79.85,1.2,1.79,1.2,2.82,0,1.14-.4,2.16-1.2,3.07Z"/>
  <path class="cls-1" d="M516.37,350.42h-27.33c-3.42,0-5.12-1.71-5.12-5.12v-32.45c0-3.42-1.71-5.12-5.12-5.12h-37.58c-3.42,0-5.12,1.71-5.12,5.12v109.31c0,3.42,1.71,5.12,5.12,5.12h75.15c3.42,0,5.12-1.71,5.12-5.12v-66.61c0-3.42-1.71-5.12-5.12-5.12Z"/>
  <path class="cls-1" d="M633.73,327.04c-5.12,1.52-10.68,1.79-16.25.47-11.11-2.63-19.42-10.83-22.75-20.94-3.24-.37-6.59-.57-10.05-.57-8.88,0-17.02,1.23-24.42,3.67-7.4,2.45-13.78,6.18-19.13,11.19-5.35,5.01-9.54,11.39-12.55,19.13-3.02,7.74-4.53,16.91-4.53,27.5s1.51,19.76,4.53,27.5c3.02,7.74,7.2,14.15,12.55,19.21,5.35,5.07,11.73,8.8,19.13,11.19,7.4,2.39,15.54,3.59,24.42,3.59s17.02-1.2,24.42-3.59c7.4-2.39,13.78-6.12,19.13-11.19,5.35-5.06,9.54-11.47,12.55-19.21,3.02-7.74,4.53-16.91,4.53-27.5s-1.51-19.75-4.53-27.5c-1.89-4.86-4.25-9.18-7.06-12.96ZM593.23,377.83c-2.28,2.22-5.12,3.33-8.54,3.33s-6.26-1.11-8.54-3.33c-2.28-2.22-3.42-5.72-3.42-10.5s1.14-8.08,3.42-10.25c2.28-2.16,5.12-3.24,8.54-3.24s6.26,1.08,8.54,3.24c2.28,2.16,3.42,5.58,3.42,10.25s-1.14,8.28-3.42,10.5Z"/>
  <path class="cls-1" d="M728.99,309.17c-4.68,11.59-17.22,18.37-29.75,15.4-4.74-1.12-8.84-3.5-12.08-6.68-6.4,12.78-20.92,20-35.44,16.57-.69-.16-1.35-.38-2.02-.59-.64,2.56-.97,5.29-.97,8.17,0,6.72,1.54,12.1,4.61,16.14,3.07,4.04,6.92,7.2,11.53,9.48,4.61,2.28,9.59,3.93,14.94,4.95,5.35,1.02,10.33,1.91,14.94,2.65,4.61.74,8.45,1.6,11.53,2.56,3.07.97,4.61,2.48,4.61,4.52,0,2.62-1.99,3.93-5.98,3.93-3.64,0-6.21-1.42-7.69-4.27-.91-1.82-1.85-3.1-2.82-3.84-.97-.74-2.19-1.11-3.67-1.11h-38.6c-3.53,0-5.12,1.71-4.78,5.12,3.3,31.2,23.34,46.8,60.12,46.8,8.54,0,16.25-.83,23.14-2.48,6.89-1.65,12.72-4.01,17.51-7.09,4.78-3.07,8.45-6.86,11.02-11.36,2.56-4.5,3.84-9.54,3.84-15.12,0-6.72-1.54-12.1-4.61-16.14-3.07-4.04-6.92-7.2-11.53-9.48-4.61-2.28-9.59-3.93-14.94-4.95-5.35-1.02-10.33-1.9-14.94-2.65-4.61-.74-8.45-1.59-11.53-2.56-3.08-.97-4.61-2.48-4.61-4.53,0-2.62,1.76-3.93,5.29-3.93,3.08,0,5.29,1.42,6.66,4.27.91,1.82,1.82,3.1,2.73,3.84.91.74,2.16,1.11,3.76,1.11h38.6c3.53,0,5.12-1.71,4.78-5.12-1.48-15.6-7-27.3-16.57-35.1-4.6-3.75-10.31-6.59-17.09-8.54Z"/>
  <path class="cls-1" d="M85.02,303.54h54.38c4.94,0,7.42-2.47,7.42-7.42v-22.25c0-4.94,2.47-7.42,7.42-7.42h5.19c12.03,0,22.82-1.32,32.38-3.95,9.56-2.63,17.71-6.71,24.47-12.24,6.76-5.52,11.95-12.56,15.57-21.13,3.62-8.57,5.44-18.79,5.44-30.65s-1.82-22.04-5.44-30.53c-3.63-8.49-8.82-15.53-15.57-21.14-6.76-5.6-14.92-9.72-24.47-12.36-9.56-2.63-20.36-3.96-32.38-3.96h-74.41c-4.94,0-7.42,2.47-7.42,7.42v158.21c0,4.94,2.47,7.42,7.42,7.42ZM153,192.3h6.43c2.63,0,4.53.62,5.68,1.85,1.15,1.24,1.73,2.6,1.73,4.08,0,1.65-.58,3.13-1.73,4.45-1.15,1.32-3.05,1.98-5.68,1.98h-6.43c-4.12,0-6.18-2.06-6.18-6.18s2.06-6.18,6.18-6.18Z"/>
  <path class="cls-1" d="M231.12,303.54h64.52c5.11,0,7.75-2.47,7.91-7.42l1.73-23.48c.33-4.94,2.97-7.42,7.91-7.42h1.98c5.11,0,7.74,2.47,7.91,7.42l1.73,23.48c.33,4.94,2.97,7.42,7.91,7.42h64.52c4.94,0,6.92-2.39,5.93-7.17l-33.37-158.7c-.99-4.78-3.96-7.17-8.9-7.17h-93.44c-4.94,0-7.91,2.39-8.9,7.17l-33.37,158.7c-.99,4.78.99,7.17,5.93,7.17ZM308.24,234.07l1.98-28.18c.33-2.47,1.65-3.71,3.96-3.71,2.47,0,3.79,1.24,3.96,3.71l1.98,28.18c.33,4.29-1.65,6.43-5.93,6.43s-6.26-2.14-5.93-6.43Z"/>
  <path class="cls-1" d="M421.59,284.63c7.66,7.33,16.81,12.73,27.44,16.19,10.63,3.46,22.21,5.19,34.73,5.19s23.52-1.48,33.5-4.45c9.97-2.97,18.66-7.54,26.08-13.72,7.42-6.18,13.39-14.05,17.92-23.61,4.53-9.56,7.37-20.85,8.53-33.87.49-4.94-1.81-7.42-6.92-7.42h-55.87c-4.29,0-7.34,2.39-9.15,7.17-2.31,6.1-7.01,9.15-14.09,9.15-4.94,0-8.86-2.02-11.74-6.06-2.89-4.04-4.33-9.52-4.33-16.44s1.07-12.11,3.21-16.07c2.14-3.96,5.11-5.93,8.9-5.93,5.27,0,8.81,2.89,10.63,8.65,1.65,4.78,4.61,7.17,8.9,7.17h55.87c5.1,0,7.42-2.47,6.92-7.42-1.16-12.85-3.88-24.02-8.16-33.5-4.29-9.47-9.97-17.3-17.06-23.48-7.09-6.18-15.41-10.75-24.97-13.72-9.56-2.97-20.19-4.45-31.89-4.45s-23.11,1.77-33.25,5.31c-10.13,3.55-18.87,8.94-26.2,16.19-7.33,7.25-13.06,16.48-17.18,27.69-4.12,11.21-6.18,24.47-6.18,39.8s2.14,28.59,6.43,39.8c4.28,11.21,10.26,20.48,17.92,27.81Z"/>
  <path class="cls-1" d="M597.47,284.63c7.74,7.33,16.97,12.73,27.69,16.19,10.71,3.46,22.5,5.19,35.35,5.19s24.63-1.73,35.35-5.19c10.71-3.46,19.94-8.86,27.69-16.19,7.74-7.33,13.8-16.6,18.17-27.81,4.36-11.21,6.55-24.47,6.55-39.8s-2.19-28.59-6.55-39.8c-4.37-11.21-10.43-20.43-18.17-27.69-7.75-7.25-16.97-12.65-27.69-16.19-10.72-3.54-22.49-5.31-35.35-5.31s-24.64,1.77-35.35,5.31c-10.71,3.55-19.94,8.94-27.69,16.19-7.75,7.25-13.8,16.48-18.17,27.69-4.37,11.21-6.55,24.47-6.55,39.8s2.18,28.59,6.55,39.8c4.37,11.21,10.42,20.48,18.17,27.81ZM648.14,201.94c3.29-3.13,7.42-4.7,12.36-4.7s9.06,1.57,12.36,4.7c3.3,3.13,4.94,8.08,4.94,14.83s-1.65,11.99-4.94,15.2c-3.3,3.21-7.41,4.82-12.36,4.82s-9.06-1.61-12.36-4.82c-3.3-3.21-4.94-8.28-4.94-15.2s1.65-11.7,4.94-14.83Z"/>
</svg>
