<?xml version="1.0" encoding="UTF-8"?>
<svg id="Capa_1" data-name="Capa 1" xmlns="http://www.w3.org/2000/svg" viewBox="0 0 840.6 579.69">
  <defs>
    <style>
      .cls-1 {
        fill: ivory;
      }

      .cls-2 {
        fill: #8c52ff;
      }
    </style>
  </defs>
  <path class="cls-2" d="M584.69,353.83c-3.42,0-6.26,1.08-8.54,3.24-2.28,2.16-3.42,5.58-3.42,10.25s1.14,8.28,3.42,10.5c2.28,2.22,5.12,3.33,8.54,3.33s6.26-1.11,8.54-3.33c2.28-2.22,3.42-5.72,3.42-10.5s-1.14-8.08-3.42-10.25c-2.28-2.16-5.12-3.24-8.54-3.24Z"/>
  <path class="cls-2" d="M314.18,240.5c4.28,0,6.26-2.14,5.93-6.43l-1.98-28.18c-.17-2.47-1.48-3.71-3.96-3.71-2.31,0-3.63,1.24-3.96,3.71l-1.98,28.18c-.33,4.29,1.65,6.43,5.93,6.43Z"/>
  <path class="cls-2" d="M153,204.66h6.43c2.63,0,4.53-.66,5.68-1.98,1.15-1.32,1.73-2.8,1.73-4.45,0-1.48-.58-2.84-1.73-4.08-1.15-1.23-3.05-1.85-5.68-1.85h-6.43c-4.12,0-6.18,2.06-6.18,6.18s2.06,6.18,6.18,6.18Z"/>
  <path class="cls-2" d="M373.93,350.42h-4.44c-2.85,0-4.27,1.42-4.27,4.27s1.42,4.27,4.27,4.27h4.44c1.82,0,3.13-.45,3.93-1.37.79-.91,1.2-1.93,1.2-3.07,0-1.02-.4-1.96-1.2-2.82-.8-.85-2.11-1.28-3.93-1.28Z"/>
  <path class="cls-2" d="M660.5,236.79c4.94,0,9.06-1.61,12.36-4.82,3.3-3.21,4.94-8.28,4.94-15.2s-1.65-11.7-4.94-14.83c-3.3-3.13-7.41-4.7-12.36-4.7s-9.06,1.57-12.36,4.7c-3.3,3.13-4.94,8.08-4.94,14.83s1.65,11.99,4.94,15.2c3.29,3.21,7.42,4.82,12.36,4.82Z"/>
  <path class="cls-2" d="M82.73,452.27h30.74c5.15,0,10-1.16,14.24-3.34,4.43,2.18,9.44,3.34,14.79,3.34h4.61c5.35,0,10.36-1.17,14.79-3.34,4.24,2.19,9.09,3.34,14.24,3.34h30.74c2.99,0,5.85-.4,8.54-1.14,2.69.74,5.55,1.14,8.54,1.14h81.98c2.9,0,5.67-.38,8.28-1.07,2.61.69,5.39,1.07,8.28,1.07h37.58c5.8,0,11.23-1.45,15.85-4.18.79.38,1.59.74,2.41,1.09,7.62,3.23,16.29,4.79,26.48,4.79,5.19,0,10.5-.47,15.8-1.41,3.09-.55,6.28-1.32,9.51-2.26,3.4,1.26,7.12,1.96,11.07,1.96h75.15c8.91,0,16.68-3.49,22.1-9.25,4.42,2.48,9.12,4.55,14.1,6.16,9.85,3.18,20.66,4.8,32.11,4.8s22.25-1.61,32.11-4.8c10.65-3.44,20.06-8.91,27.99-16.24,1.51,1.41,3.08,2.78,4.74,4.07,14.47,11.26,33.97,16.97,57.97,16.97,10.45,0,20.2-1.06,28.96-3.16,9.59-2.3,18.08-5.79,25.2-10.37,8.19-5.26,14.66-12,19.22-20.01,4.73-8.29,7.12-17.54,7.12-27.49,0-8.67-1.63-16.47-4.86-23.29,3.54-5.53,5.09-12.22,4.4-19.27-2.14-22.4-10.77-39.91-25.65-52.05-3.29-2.68-6.92-5.05-10.84-7.13,5.63-7.47,10.3-15.93,13.96-25.32,5.48-14.07,8.25-30.51,8.25-48.87s-2.78-34.8-8.26-48.88c-5.72-14.66-13.92-27.05-24.38-36.86-10.38-9.71-22.79-17-36.92-21.67-13.2-4.36-27.73-6.58-43.2-6.58s-30,2.21-43.2,6.58c-14.13,4.68-26.55,11.97-36.92,21.68-4.33,4.05-8.26,8.55-11.79,13.47-4.4-6.53-9.48-12.37-15.25-17.4-9.69-8.45-21.13-14.76-33.99-18.75-11.92-3.7-25.14-5.57-39.3-5.57s-28.75,2.26-41.5,6.72c-13.62,4.77-25.57,12.17-35.53,22.01-2.55,2.52-4.96,5.22-7.22,8.08l-1.52-7.22c-3.4-16.47-16.51-27.11-33.38-27.11h-93.44c-15.91,0-28.47,9.47-32.69,24.29-.83-.75-1.66-1.51-2.53-2.23-9.47-7.85-20.83-13.64-33.78-17.21-11.69-3.22-24.82-4.85-39.02-4.85h-74.41c-18.78,0-32.42,13.63-32.42,32.42v158.21c0,3.02.36,5.9,1.02,8.61-.67,2.56-1.02,5.28-1.02,8.11v109.31c0,17.17,12.95,30.12,30.12,30.12ZM311.08,338.46c0,3.42-1.71,5.12-5.12,5.12h-35.01c-2.85,0-4.27,1.42-4.27,4.27s1.42,4.27,4.27,4.27h29.89c3.42,0,5.12,1.71,5.12,5.12v20.5c0,3.42-1.71,5.12-5.12,5.12h-29.89c-2.85,0-4.27,1.43-4.27,4.27s1.42,4.27,4.27,4.27h35.01c3.42,0,5.12,1.71,5.12,5.12v25.62c0,3.42-1.71,5.12-5.12,5.12h-81.98c-3.42,0-5.12-1.71-5.12-5.12v-109.31c0-3.42,1.71-5.12,5.12-5.12h81.98c3.42,0,5.12,1.71,5.12,5.12v25.62ZM428.58,424.54c-4.33,1.6-8.43,2.73-12.3,3.42-3.87.68-7.68,1.02-11.44,1.02-6.72,0-12.3-.94-16.74-2.82-4.44-1.88-8.03-4.67-10.76-8.37-2.73-3.7-4.7-8.2-5.89-13.49-1.2-5.29-1.85-11.36-1.96-18.19,0-2.05-1.08-3.07-3.24-3.07-1.94,0-2.9,1.02-2.9,3.07l1.71,36.04c.23,3.42-1.43,5.12-4.95,5.12h-37.58c-3.42,0-5.12-1.71-5.12-5.12v-109.31c0-3.42,1.71-5.12,5.12-5.12h51.41c8.31,0,15.77.66,22.37,1.96,6.6,1.31,12.24,3.33,16.91,6.06,4.67,2.73,8.25,6.18,10.76,10.33,2.5,4.16,3.76,9.14,3.76,14.94,0,5.12-.71,9.45-2.14,12.98-1.43,3.53-3.56,6.49-6.41,8.88-2.85,2.39-6.4,4.27-10.67,5.64-4.27,1.37-9.25,2.51-14.94,3.42-1.48.11-2.39.63-2.73,1.54-.34.91.23,1.88,1.71,2.9,3.19,2.05,6.94,3.07,11.27,3.07,3.42,0,6.63-.34,9.65-1.02,3.02-.68,5.66-1.48,7.94-2.39.91-.34,1.71-.51,2.39-.51,1.71,0,2.73,1.2,3.07,3.59l5.47,37.74c.68,3.99-.57,6.55-3.76,7.69ZM521.49,422.15c0,3.42-1.71,5.12-5.12,5.12h-75.15c-3.42,0-5.12-1.71-5.12-5.12v-109.31c0-3.42,1.71-5.12,5.12-5.12h37.58c3.42,0,5.12,1.71,5.12,5.12v32.45c0,3.42,1.71,5.12,5.12,5.12h27.33c3.42,0,5.12,1.71,5.12,5.12v66.61ZM640.79,394.99c-3.02,7.74-7.2,14.15-12.55,19.21-5.35,5.07-11.73,8.8-19.13,11.19-7.4,2.39-15.54,3.59-24.42,3.59s-17.02-1.2-24.42-3.59c-7.4-2.39-13.78-6.12-19.13-11.19-5.35-5.06-9.54-11.47-12.55-19.21-3.02-7.74-4.53-16.91-4.53-27.5s1.51-19.75,4.53-27.5c3.02-7.74,7.2-14.12,12.55-19.13,5.35-5.01,11.73-8.74,19.13-11.19,7.4-2.45,15.54-3.67,24.42-3.67,3.46,0,6.81.19,10.05.57,3.32,10.11,11.63,18.31,22.75,20.94,5.57,1.32,11.13,1.05,16.25-.47,2.81,3.78,5.17,8.1,7.06,12.96,3.02,7.74,4.53,16.91,4.53,27.5s-1.51,19.76-4.53,27.5ZM762.65,352.81c.34,3.42-1.25,5.12-4.78,5.12h-38.6c-1.6,0-2.85-.37-3.76-1.11-.91-.74-1.82-2.02-2.73-3.84-1.37-2.85-3.59-4.27-6.66-4.27-3.53,0-5.29,1.31-5.29,3.93,0,2.05,1.54,3.56,4.61,4.53,3.07.97,6.92,1.82,11.53,2.56,4.61.74,9.59,1.62,14.94,2.65,5.35,1.02,10.33,2.68,14.94,4.95,4.61,2.28,8.45,5.44,11.53,9.48,3.07,4.04,4.61,9.42,4.61,16.14,0,5.58-1.28,10.62-3.84,15.12-2.56,4.5-6.23,8.28-11.02,11.36-4.78,3.07-10.62,5.44-17.51,7.09-6.89,1.65-14.6,2.48-23.14,2.48-36.78,0-56.82-15.6-60.12-46.8-.34-3.42,1.25-5.12,4.78-5.12h38.6c1.48,0,2.7.37,3.67,1.11.97.74,1.9,2.02,2.82,3.84,1.48,2.85,4.04,4.27,7.69,4.27,3.98,0,5.98-1.31,5.98-3.93,0-2.05-1.54-3.56-4.61-4.52-3.07-.97-6.92-1.82-11.53-2.56-4.61-.74-9.59-1.62-14.94-2.65-5.35-1.02-10.33-2.67-14.94-4.95-4.61-2.28-8.45-5.44-11.53-9.48-3.07-4.04-4.61-9.42-4.61-16.14,0-2.89.33-5.61.97-8.17.67.2,1.33.42,2.02.59,14.52,3.43,29.04-3.79,35.44-16.57,3.24,3.18,7.34,5.56,12.08,6.68,12.54,2.96,25.08-3.81,29.75-15.4,6.79,1.95,12.49,4.79,17.09,8.54,9.56,7.8,15.09,19.5,16.57,35.1ZM579.3,177.22c4.37-11.21,10.42-20.43,18.17-27.69,7.74-7.25,16.97-12.65,27.69-16.19,10.71-3.54,22.5-5.31,35.35-5.31s24.63,1.77,35.35,5.31c10.71,3.55,19.94,8.94,27.69,16.19,7.74,7.25,13.8,16.48,18.17,27.69,4.36,11.21,6.55,24.47,6.55,39.8s-2.19,28.59-6.55,39.8c-4.37,11.21-10.43,20.48-18.17,27.81-7.75,7.33-16.97,12.73-27.69,16.19-10.72,3.46-22.49,5.19-35.35,5.19s-24.64-1.73-35.35-5.19c-10.71-3.46-19.94-8.86-27.69-16.19-7.75-7.33-13.8-16.6-18.17-27.81-4.37-11.21-6.55-24.47-6.55-39.8s2.18-28.59,6.55-39.8ZM403.42,177.22c4.12-11.21,9.85-20.43,17.18-27.69,7.33-7.25,16.07-12.65,26.2-16.19,10.13-3.54,21.22-5.31,33.25-5.31s22.33,1.48,31.89,4.45c9.56,2.97,17.88,7.54,24.97,13.72,7.08,6.18,12.77,14.01,17.06,23.48,4.28,9.48,7,20.64,8.16,33.5.49,4.94-1.82,7.42-6.92,7.42h-55.87c-4.29,0-7.25-2.39-8.9-7.17-1.81-5.77-5.36-8.65-10.63-8.65-3.79,0-6.76,1.98-8.9,5.93-2.14,3.95-3.21,9.31-3.21,16.07s1.44,12.4,4.33,16.44c2.88,4.04,6.8,6.06,11.74,6.06,7.08,0,11.78-3.05,14.09-9.15,1.81-4.78,4.86-7.17,9.15-7.17h55.87c5.1,0,7.41,2.47,6.92,7.42-1.16,13.02-4,24.31-8.53,33.87-4.53,9.56-10.5,17.43-17.92,23.61-7.42,6.18-16.11,10.75-26.08,13.72-9.97,2.97-21.13,4.45-33.5,4.45s-24.1-1.73-34.73-5.19c-10.63-3.46-19.78-8.86-27.44-16.19-7.66-7.33-13.64-16.6-17.92-27.81-4.29-11.21-6.43-24.47-6.43-39.8s2.06-28.59,6.18-39.8ZM258.56,137.67c.99-4.78,3.96-7.17,8.9-7.17h93.44c4.94,0,7.91,2.39,8.9,7.17l33.37,158.7c.99,4.78-.99,7.17-5.93,7.17h-64.52c-4.94,0-7.58-2.47-7.91-7.42l-1.73-23.48c-.17-4.94-2.8-7.42-7.91-7.42h-1.98c-4.94,0-7.58,2.47-7.91,7.42l-1.73,23.48c-.16,4.94-2.8,7.42-7.91,7.42h-64.52c-4.94,0-6.92-2.39-5.93-7.17l33.37-158.7ZM77.61,137.91c0-4.94,2.47-7.42,7.42-7.42h74.41c12.03,0,22.82,1.32,32.38,3.96,9.56,2.64,17.71,6.76,24.47,12.36,6.76,5.6,11.95,12.65,15.57,21.14,3.62,8.49,5.44,18.66,5.44,30.53s-1.82,22.09-5.44,30.65c-3.63,8.57-8.82,15.62-15.57,21.13-6.76,5.52-14.92,9.6-24.47,12.24-9.56,2.64-20.36,3.95-32.38,3.95h-5.19c-4.94,0-7.42,2.47-7.42,7.42v22.25c0,4.94-2.47,7.42-7.42,7.42h-54.38c-4.94,0-7.42-2.47-7.42-7.42v-158.21ZM77.61,312.84c0-3.42,1.71-5.12,5.12-5.12h32.96c3.19,0,5.75,1.48,7.69,4.44l16.4,25.28c.57.91,1.22,1.68,1.96,2.3.74.63,1.79.94,3.16.94s2.42-.31,3.16-.94c.74-.62,1.39-1.39,1.96-2.3l16.23-25.28c1.93-2.96,4.5-4.44,7.69-4.44h32.96c3.42,0,5.12,1.71,5.12,5.12v109.31c0,3.42-1.71,5.12-5.12,5.12h-30.74c-3.42,0-4.95-1.71-4.61-5.12l2.05-24.08c.11-1.14,0-2.11-.34-2.9-.34-.79-1.14-1.2-2.39-1.2-1.48,0-2.59.37-3.33,1.11-.74.74-1.34,1.62-1.79,2.65l-11.44,24.94c-1.37,3.07-3.76,4.61-7.17,4.61h-4.61c-3.42,0-5.81-1.54-7.17-4.61l-11.44-24.94c-.46-1.02-1.02-1.9-1.71-2.65-.68-.74-1.82-1.11-3.42-1.11-1.14,0-1.91.4-2.31,1.2-.4.8-.54,1.77-.43,2.9l2.05,24.08c.34,3.42-1.2,5.12-4.61,5.12h-30.74c-3.42,0-5.12-1.71-5.12-5.12v-109.31Z"/>
  <path class="cls-1" d="M82.73,427.27h30.74c3.42,0,4.95-1.71,4.61-5.12l-2.05-24.08c-.11-1.14.03-2.11.43-2.9.4-.79,1.17-1.2,2.31-1.2,1.59,0,2.73.37,3.42,1.11.68.74,1.25,1.62,1.71,2.65l11.44,24.94c1.37,3.07,3.76,4.61,7.17,4.61h4.61c3.42,0,5.81-1.54,7.17-4.61l11.44-24.94c.45-1.02,1.05-1.9,1.79-2.65.74-.74,1.85-1.11,3.33-1.11,1.25,0,2.05.4,2.39,1.2.34.8.45,1.77.34,2.9l-2.05,24.08c-.34,3.42,1.2,5.12,4.61,5.12h30.74c3.42,0,5.12-1.71,5.12-5.12v-109.31c0-3.42-1.71-5.12-5.12-5.12h-32.96c-3.19,0-5.75,1.48-7.69,4.44l-16.23,25.28c-.57.91-1.23,1.68-1.96,2.3-.74.63-1.79.94-3.16.94s-2.42-.31-3.16-.94c-.74-.62-1.39-1.39-1.96-2.3l-16.4-25.28c-1.94-2.96-4.5-4.44-7.69-4.44h-32.96c-3.42,0-5.12,1.71-5.12,5.12v109.31c0,3.42,1.71,5.12,5.12,5.12Z"/>
  <path class="cls-1" d="M305.95,307.72h-81.98c-3.42,0-5.12,1.71-5.12,5.12v109.31c0,3.42,1.71,5.12,5.12,5.12h81.98c3.42,0,5.12-1.71,5.12-5.12v-25.62c0-3.42-1.71-5.12-5.12-5.12h-35.01c-2.85,0-4.27-1.42-4.27-4.27s1.42-4.27,4.27-4.27h29.89c3.42,0,5.12-1.71,5.12-5.12v-20.5c0-3.42-1.71-5.12-5.12-5.12h-29.89c-2.85,0-4.27-1.42-4.27-4.27s1.42-4.27,4.27-4.27h35.01c3.42,0,5.12-1.71,5.12-5.12v-25.62c0-3.42-1.71-5.12-5.12-5.12Z"/>
  <path class="cls-1" d="M426.88,379.11c-.34-2.39-1.37-3.59-3.07-3.59-.68,0-1.48.17-2.39.51-2.28.91-4.93,1.71-7.94,2.39-3.02.68-6.23,1.02-9.65,1.02-4.33,0-8.09-1.02-11.27-3.07-1.48-1.02-2.05-1.99-1.71-2.9.34-.91,1.25-1.42,2.73-1.54,5.69-.91,10.67-2.05,14.94-3.42,4.27-1.37,7.83-3.24,10.67-5.64,2.84-2.39,4.98-5.35,6.41-8.88,1.42-3.53,2.14-7.86,2.14-12.98,0-5.81-1.25-10.79-3.76-14.94-2.51-4.15-6.09-7.6-10.76-10.33-4.67-2.73-10.31-4.75-16.91-6.06-6.6-1.31-14.06-1.96-22.37-1.96h-51.41c-3.42,0-5.12,1.71-5.12,5.12v109.31c0,3.42,1.71,5.12,5.12,5.12h37.58c3.53,0,5.18-1.71,4.95-5.12l-1.71-36.04c0-2.05.97-3.07,2.9-3.07,2.16,0,3.24,1.02,3.24,3.07.11,6.83.77,12.89,1.96,18.19,1.2,5.29,3.16,9.79,5.89,13.49,2.73,3.7,6.32,6.49,10.76,8.37,4.44,1.88,10.02,2.82,16.74,2.82,3.76,0,7.57-.34,11.44-1.02,3.87-.68,7.97-1.82,12.3-3.42,3.19-1.14,4.44-3.7,3.76-7.69l-5.47-37.74ZM377.86,357.59c-.8.91-2.11,1.37-3.93,1.37h-4.44c-2.85,0-4.27-1.42-4.27-4.27s1.42-4.27,4.27-4.27h4.44c1.82,0,3.13.43,3.93,1.28.79.85,1.2,1.79,1.2,2.82,0,1.14-.4,2.16-1.2,3.07Z"/>
  <path class="cls-1" d="M516.37,350.42h-27.33c-3.42,0-5.12-1.71-5.12-5.12v-32.45c0-3.42-1.71-5.12-5.12-5.12h-37.58c-3.42,0-5.12,1.71-5.12,5.12v109.31c0,3.42,1.71,5.12,5.12,5.12h75.15c3.42,0,5.12-1.71,5.12-5.12v-66.61c0-3.42-1.71-5.12-5.12-5.12Z"/>
  <path class="cls-1" d="M633.73,327.04c-5.12,1.52-10.68,1.79-16.25.47-11.11-2.63-19.42-10.83-22.75-20.94-3.24-.37-6.59-.57-10.05-.57-8.88,0-17.02,1.23-24.42,3.67-7.4,2.45-13.78,6.18-19.13,11.19-5.35,5.01-9.54,11.39-12.55,19.13-3.02,7.74-4.53,16.91-4.53,27.5s1.51,19.76,4.53,27.5c3.02,7.74,7.2,14.15,12.55,19.21,5.35,5.07,11.73,8.8,19.13,11.19,7.4,2.39,15.54,3.59,24.42,3.59s17.02-1.2,24.42-3.59c7.4-2.39,13.78-6.12,19.13-11.19,5.35-5.06,9.54-11.47,12.55-19.21,3.02-7.74,4.53-16.91,4.53-27.5s-1.51-19.75-4.53-27.5c-1.89-4.86-4.25-9.18-7.06-12.96ZM593.23,377.83c-2.28,2.22-5.12,3.33-8.54,3.33s-6.26-1.11-8.54-3.33c-2.28-2.22-3.42-5.72-3.42-10.5s1.14-8.08,3.42-10.25c2.28-2.16,5.12-3.24,8.54-3.24s6.26,1.08,8.54,3.24c2.28,2.16,3.42,5.58,3.42,10.25s-1.14,8.28-3.42,10.5Z"/>
  <path class="cls-1" d="M728.99,309.17c-4.68,11.59-17.22,18.37-29.75,15.4-4.74-1.12-8.84-3.5-12.08-6.68-6.4,12.78-20.92,20-35.44,16.57-.69-.16-1.35-.38-2.02-.59-.64,2.56-.97,5.29-.97,8.17,0,6.72,1.54,12.1,4.61,16.14,3.07,4.04,6.92,7.2,11.53,9.48,4.61,2.28,9.59,3.93,14.94,4.95,5.35,1.02,10.33,1.91,14.94,2.65,4.61.74,8.45,1.6,11.53,2.56,3.07.97,4.61,2.48,4.61,4.52,0,2.62-1.99,3.93-5.98,3.93-3.64,0-6.21-1.42-7.69-4.27-.91-1.82-1.85-3.1-2.82-3.84-.97-.74-2.19-1.11-3.67-1.11h-38.6c-3.53,0-5.12,1.71-4.78,5.12,3.3,31.2,23.34,46.8,60.12,46.8,8.54,0,16.25-.83,23.14-2.48,6.89-1.65,12.72-4.01,17.51-7.09,4.78-3.07,8.45-6.86,11.02-11.36,2.56-4.5,3.84-9.54,3.84-15.12,0-6.72-1.54-12.1-4.61-16.14-3.07-4.04-6.92-7.2-11.53-9.48-4.61-2.28-9.59-3.93-14.94-4.95-5.35-1.02-10.33-1.9-14.94-2.65-4.61-.74-8.45-1.59-11.53-2.56-3.08-.97-4.61-2.48-4.61-4.53,0-2.62,1.76-3.93,5.29-3.93,3.08,0,5.29,1.42,6.66,4.27.91,1.82,1.82,3.1,2.73,3.84.91.74,2.16,1.11,3.76,1.11h38.6c3.53,0,5.12-1.71,4.78-5.12-1.48-15.6-7-27.3-16.57-35.1-4.6-3.75-10.31-6.59-17.09-8.54Z"/>
  <path class="cls-1" d="M85.02,303.54h54.38c4.94,0,7.42-2.47,7.42-7.42v-22.25c0-4.94,2.47-7.42,7.42-7.42h5.19c12.03,0,22.82-1.32,32.38-3.95,9.56-2.63,17.71-6.71,24.47-12.24,6.76-5.52,11.95-12.56,15.57-21.13,3.62-8.57,5.44-18.79,5.44-30.65s-1.82-22.04-5.44-30.53c-3.63-8.49-8.82-15.53-15.57-21.14-6.76-5.6-14.92-9.72-24.47-12.36-9.56-2.63-20.36-3.96-32.38-3.96h-74.41c-4.94,0-7.42,2.47-7.42,7.42v158.21c0,4.94,2.47,7.42,7.42,7.42ZM153,192.3h6.43c2.63,0,4.53.62,5.68,1.85,1.15,1.24,1.73,2.6,1.73,4.08,0,1.65-.58,3.13-1.73,4.45-1.15,1.32-3.05,1.98-5.68,1.98h-6.43c-4.12,0-6.18-2.06-6.18-6.18s2.06-6.18,6.18-6.18Z"/>
  <path class="cls-1" d="M231.12,303.54h64.52c5.11,0,7.75-2.47,7.91-7.42l1.73-23.48c.33-4.94,2.97-7.42,7.91-7.42h1.98c5.11,0,7.74,2.47,7.91,7.42l1.73,23.48c.33,4.94,2.97,7.42,7.91,7.42h64.52c4.94,0,6.92-2.39,5.93-7.17l-33.37-158.7c-.99-4.78-3.96-7.17-8.9-7.17h-93.44c-4.94,0-7.91,2.39-8.9,7.17l-33.37,158.7c-.99,4.78.99,7.17,5.93,7.17ZM308.24,234.07l1.98-28.18c.33-2.47,1.65-3.71,3.96-3.71,2.47,0,3.79,1.24,3.96,3.71l1.98,28.18c.33,4.29-1.65,6.43-5.93,6.43s-6.26-2.14-5.93-6.43Z"/>
  <path class="cls-1" d="M421.59,284.63c7.66,7.33,16.81,12.73,27.44,16.19,10.63,3.46,22.21,5.19,34.73,5.19s23.52-1.48,33.5-4.45c9.97-2.97,18.66-7.54,26.08-13.72,7.42-6.18,13.39-14.05,17.92-23.61,4.53-9.56,7.37-20.85,8.53-33.87.49-4.94-1.81-7.42-6.92-7.42h-55.87c-4.29,0-7.34,2.39-9.15,7.17-2.31,6.1-7.01,9.15-14.09,9.15-4.94,0-8.86-2.02-11.74-6.06-2.89-4.04-4.33-9.52-4.33-16.44s1.07-12.11,3.21-16.07c2.14-3.96,5.11-5.93,8.9-5.93,5.27,0,8.81,2.89,10.63,8.65,1.65,4.78,4.61,7.17,8.9,7.17h55.87c5.1,0,7.42-2.47,6.92-7.42-1.16-12.85-3.88-24.02-8.16-33.5-4.29-9.47-9.97-17.3-17.06-23.48-7.09-6.18-15.41-10.75-24.97-13.72-9.56-2.97-20.19-4.45-31.89-4.45s-23.11,1.77-33.25,5.31c-10.13,3.55-18.87,8.94-26.2,16.19-7.33,7.25-13.06,16.48-17.18,27.69-4.12,11.21-6.18,24.47-6.18,39.8s2.14,28.59,6.43,39.8c4.28,11.21,10.26,20.48,17.92,27.81Z"/>
  <path class="cls-1" d="M597.47,284.63c7.74,7.33,16.97,12.73,27.69,16.19,10.71,3.46,22.5,5.19,35.35,5.19s24.63-1.73,35.35-5.19c10.71-3.46,19.94-8.86,27.69-16.19,7.74-7.33,13.8-16.6,18.17-27.81,4.36-11.21,6.55-24.47,6.55-39.8s-2.19-28.59-6.55-39.8c-4.37-11.21-10.43-20.43-18.17-27.69-7.75-7.25-16.97-12.65-27.69-16.19-10.72-3.54-22.49-5.31-35.35-5.31s-24.64,1.77-35.35,5.31c-10.71,3.55-19.94,8.94-27.69,16.19-7.75,7.25-13.8,16.48-18.17,27.69-4.37,11.21-6.55,24.47-6.55,39.8s2.18,28.59,6.55,39.8c4.37,11.21,10.42,20.48,18.17,27.81ZM648.14,201.94c3.29-3.13,7.42-4.7,12.36-4.7s9.06,1.57,12.36,4.7c3.3,3.13,4.94,8.08,4.94,14.83s-1.65,11.99-4.94,15.2c-3.3,3.21-7.41,4.82-12.36,4.82s-9.06-1.61-12.36-4.82c-3.3-3.21-4.94-8.28-4.94-15.2s1.65-11.7,4.94-14.83Z"/>
</svg>